<?xml version="1.0" encoding="UTF-8"?>
<svg id="Capa_2" data-name="Capa 2" xmlns="http://www.w3.org/2000/svg" xmlns:xlink="http://www.w3.org/1999/xlink" viewBox="0 0 808.05 348.54">
  <defs>
    <style>
      .cls-1 {
        fill: #013e7c;
      }

      .cls-2 {
        fill: #193f77;
      }

      .cls-3 {
        clip-path: url(#clippath);
      }
    </style>
    <clipPath id="clippath">
      <path class="cls-1" d="M95.44,261.07h11.82v-36.59h-11.82v36.59ZM139.65,224.48l-7.65,24.15-7.76-24.15h-12.47l13.52,36.59h12.92l13.62-36.59h-12.17ZM263.05,261.07h11.79v-36.59h-11.79v36.59ZM217.09,224.91c-1.11.35-2.12.79-2.97,1.28-.78.43-1.66,1.01-2.62,1.75-.97.71-1.69,1.31-2.25,1.79v-5.25h-11.83v36.59h11.83v-24.51c1.28-.48,2.62-.9,3.98-1.23,1.36-.35,2.65-.52,3.9-.52,1.05,0,2,.02,2.82.1.88.08,1.52.19,1.96.36h1.02v-10.8c-.41-.04-.83-.08-1.28-.1-.49,0-.91,0-1.3,0-1.02,0-2.1.16-3.25.53M235.26,224.46c-2.22.65-4.07,1.52-5.6,2.63-1.54,1.13-2.68,2.43-3.43,3.86-.77,1.45-1.16,2.98-1.16,4.59,0,2.86.74,5.14,2.24,6.9,1.51,1.74,3.73,3.04,6.69,3.98,1.09.3,2.28.6,3.68.83,1.35.27,2.52.51,3.4.71,1.67.39,2.83.8,3.4,1.26.59.41.87,1.04.87,1.91,0,1.09-.6,1.88-1.91,2.37-1.26.51-2.72.75-4.39.75s-3.14-.19-4.53-.54c-1.37-.34-2.62-.78-3.73-1.29-1.26-.53-2.28-1.04-3-1.56-.72-.49-1.37-.94-1.91-1.37h-.99v9.64c1.63.76,3.68,1.48,6.18,2.05,2.49.59,5.1.89,7.93.89,3.05,0,5.67-.32,7.89-.96,2.18-.63,4.06-1.52,5.71-2.67,1.52-1.06,2.74-2.37,3.56-3.9.82-1.59,1.23-3.21,1.23-4.91,0-2.73-.71-4.89-2.11-6.54-1.41-1.63-3.5-2.88-6.2-3.72-1.21-.39-2.47-.7-3.81-.94-1.29-.23-2.47-.45-3.48-.69-1.94-.47-3.21-.92-3.8-1.41-.6-.46-.9-1.12-.9-1.93,0-.93.62-1.7,1.79-2.25,1.16-.56,2.63-.85,4.34-.85,1.27,0,2.53.14,3.74.41,1.25.31,2.35.66,3.32,1.09.86.35,1.72.79,2.6,1.32.86.51,1.49.9,1.9,1.21h.96v-9.27c-1.52-.68-3.42-1.31-5.61-1.81-2.25-.52-4.71-.75-7.36-.75-2.79,0-5.31.31-7.5.98M68.62,224.83c-1.83.87-3.72,2.11-5.66,3.7v-4.04h-11.82v36.59h11.82v-25.93c1.15-.76,2.18-1.3,3.21-1.68.96-.32,1.96-.5,2.93-.5,1.29,0,2.29.18,3.06.54.76.37,1.38.94,1.77,1.77.33.69.58,1.79.7,3.23.11,1.46.19,2.95.19,4.41v18.16h11.87v-23.8c0-4.48-1.02-7.89-3.08-10.27-2.04-2.34-4.99-3.51-8.87-3.51-2.25,0-4.26.42-6.1,1.34M338.02,253.17c-.97-.67-1.45-1.83-1.45-3.54,0-1.18.28-2.11.85-2.83.6-.7,1.38-1.22,2.42-1.59,1.21-.4,2.4-.67,3.66-.84,1.22-.12,2.85-.29,4.86-.48v7.62c-.86.82-1.84,1.44-2.95,1.91-1.06.46-2.14.68-3.18.68-1.84,0-3.25-.31-4.2-.94M333.45,224.11c-2.61.45-4.49.83-5.68,1.15v8.84s1.02,0,1.02,0c1.79-.75,3.6-1.4,5.48-1.87,1.87-.5,3.5-.74,4.88-.74,3.08,0,5.41.39,6.96,1.16,1.51.77,2.31,2.16,2.31,4.18v.2c-3.44.24-6.63.52-9.59.91-3,.39-5.54,1.11-7.69,2.09-2.13.97-3.74,2.29-4.85,3.98-1.16,1.67-1.72,3.87-1.72,6.57,0,3.3,1.13,6.05,3.35,8.2,2.19,2.17,5.01,3.26,8.34,3.26,1.83,0,3.23-.15,4.23-.39,1-.27,2.03-.63,3.09-1.13,1.09-.53,1.95-1.07,2.58-1.58.65-.52,1.39-1.11,2.18-1.75v3.88h11.76v-24.89c0-4.31-1.5-7.51-4.45-9.6-3.02-2.1-7.75-3.14-14.3-3.14-2.67,0-5.3.22-7.91.67M167.52,232.68c1.29-1.35,3.09-2.02,5.41-2.02s3.91.64,5.02,1.91c1.09,1.28,1.67,3.1,1.74,5.51h-14.3c.13-2.29.85-4.08,2.13-5.4M158.94,228.7c-3.58,3.56-5.35,8.32-5.35,14.29s1.9,10.82,5.71,14.1c3.83,3.29,9.3,4.95,16.46,4.95,1.96,0,3.64-.1,4.97-.28,1.38-.17,2.68-.42,3.98-.76,1.4-.32,2.49-.64,3.29-.98.8-.29,1.71-.65,2.64-1.01v-9.4h-1.23c-.51.37-1.18.79-2,1.26-.85.47-1.73.93-2.71,1.33-1.09.49-2.34.86-3.66,1.17-1.33.3-2.69.44-4.02.44-1.62,0-3.09-.14-4.41-.44-1.37-.31-2.58-.77-3.57-1.45-1.05-.69-1.88-1.59-2.51-2.73-.63-1.12-.98-2.56-1.11-4.25h25.93v-4.11c0-5.62-1.48-9.92-4.42-12.96-2.92-3.02-7.28-4.52-13.08-4.52-6.42,0-11.39,1.78-14.92,5.35M29.5,210.42v31.6c0,3.62-.7,6.28-2.06,7.91-1.36,1.68-3.48,2.49-6.4,2.49s-5.09-.86-6.41-2.57c-1.33-1.71-1.97-4.34-1.97-7.83v-31.6H0v32.32c0,6.33,1.81,11.13,5.44,14.42,3.67,3.27,8.85,4.93,15.6,4.93s12.23-1.69,15.78-5.01c3.54-3.36,5.3-8.15,5.3-14.37v-32.29h-12.62ZM95.1,219.29h12.52v-8.9h-12.52v8.9ZM262.71,219.29h12.47v-8.9h-12.47v8.9ZM295.02,250.74c-1.16-1.61-1.71-4.21-1.73-7.83,0-3.43.74-6.08,2.16-8,1.45-1.91,3.57-2.87,6.39-2.87.69,0,1.5.1,2.45.3.94.15,1.7.39,2.28.67v17.94c-.86.69-1.84,1.22-2.89,1.61-1.08.38-2.12.58-3.15.58-2.53,0-4.39-.78-5.51-2.39M306.57,210.39v15.56c-1.67-.83-3.16-1.47-4.45-1.88-1.27-.39-2.91-.58-4.88-.58-2.17,0-4.25.46-6.21,1.36-1.96.94-3.63,2.2-5,3.78-1.5,1.73-2.66,3.77-3.54,6.12-.87,2.34-1.28,5.11-1.28,8.3,0,5.77,1.25,10.38,3.79,13.84,2.5,3.47,5.94,5.19,10.28,5.19,1.28,0,2.38-.13,3.3-.32.91-.23,1.87-.55,2.8-.99.75-.34,1.61-.86,2.58-1.55,1-.71,1.85-1.36,2.61-1.98v3.84h11.81v-50.68h-11.81ZM380,250.74c-1.18-1.61-1.75-4.21-1.75-7.83s.75-6.08,2.14-8c1.44-1.91,3.58-2.87,6.42-2.87.68,0,1.49.1,2.43.3.96.15,1.71.39,2.29.66v17.94c-.87.69-1.85,1.22-2.92,1.61-1.04.38-2.1.58-3.11.58-2.55,0-4.42-.78-5.5-2.39M391.52,210.39v15.56c-1.68-.83-3.16-1.47-4.46-1.88-1.24-.39-2.88-.58-4.87-.58-2.19,0-4.27.46-6.21,1.36-1.97.94-3.63,2.2-4.98,3.78-1.53,1.73-2.69,3.77-3.58,6.12-.84,2.34-1.25,5.11-1.25,8.3,0,5.77,1.22,10.38,3.77,13.84,2.52,3.47,5.94,5.19,10.26,5.19,1.29,0,2.42-.13,3.32-.32.93-.23,1.86-.55,2.82-.99.71-.35,1.6-.86,2.56-1.56.98-.71,1.85-1.36,2.62-1.98v3.84h11.82v-50.68h-11.82Z"/>
    </clipPath>
  </defs>
  <g id="Capa_1-2" data-name="Capa 1">
    <g>
      <g>
        <g>
          <path class="cls-1" d="M95.44,261.07h11.82v-36.59h-11.82v36.59ZM139.65,224.48l-7.65,24.15-7.76-24.15h-12.47l13.52,36.59h12.92l13.62-36.59h-12.17ZM263.05,261.07h11.79v-36.59h-11.79v36.59ZM217.09,224.91c-1.11.35-2.12.79-2.97,1.28-.78.43-1.66,1.01-2.62,1.75-.97.71-1.69,1.31-2.25,1.79v-5.25h-11.83v36.59h11.83v-24.51c1.28-.48,2.62-.9,3.98-1.23,1.36-.35,2.65-.52,3.9-.52,1.05,0,2,.02,2.82.1.88.08,1.52.19,1.96.36h1.02v-10.8c-.41-.04-.83-.08-1.28-.1-.49,0-.91,0-1.3,0-1.02,0-2.1.16-3.25.53M235.26,224.46c-2.22.65-4.07,1.52-5.6,2.63-1.54,1.13-2.68,2.43-3.43,3.86-.77,1.45-1.16,2.98-1.16,4.59,0,2.86.74,5.14,2.24,6.9,1.51,1.74,3.73,3.04,6.69,3.98,1.09.3,2.28.6,3.68.83,1.35.27,2.52.51,3.4.71,1.67.39,2.83.8,3.4,1.26.59.41.87,1.04.87,1.91,0,1.09-.6,1.88-1.91,2.37-1.26.51-2.72.75-4.39.75s-3.14-.19-4.53-.54c-1.37-.34-2.62-.78-3.73-1.29-1.26-.53-2.28-1.04-3-1.56-.72-.49-1.37-.94-1.91-1.37h-.99v9.64c1.63.76,3.68,1.48,6.18,2.05,2.49.59,5.1.89,7.93.89,3.05,0,5.67-.32,7.89-.96,2.18-.63,4.06-1.52,5.71-2.67,1.52-1.06,2.74-2.37,3.56-3.9.82-1.59,1.23-3.21,1.23-4.91,0-2.73-.71-4.89-2.11-6.54-1.41-1.63-3.5-2.88-6.2-3.72-1.21-.39-2.47-.7-3.81-.94-1.29-.23-2.47-.45-3.48-.69-1.94-.47-3.21-.92-3.8-1.41-.6-.46-.9-1.12-.9-1.93,0-.93.62-1.7,1.79-2.25,1.16-.56,2.63-.85,4.34-.85,1.27,0,2.53.14,3.74.41,1.25.31,2.35.66,3.32,1.09.86.35,1.72.79,2.6,1.32.86.51,1.49.9,1.9,1.21h.96v-9.27c-1.52-.68-3.42-1.31-5.61-1.81-2.25-.52-4.71-.75-7.36-.75-2.79,0-5.31.31-7.5.98M68.62,224.83c-1.83.87-3.72,2.11-5.66,3.7v-4.04h-11.82v36.59h11.82v-25.93c1.15-.76,2.18-1.3,3.21-1.68.96-.32,1.96-.5,2.93-.5,1.29,0,2.29.18,3.06.54.76.37,1.38.94,1.77,1.77.33.69.58,1.79.7,3.23.11,1.46.19,2.95.19,4.41v18.16h11.87v-23.8c0-4.48-1.02-7.89-3.08-10.27-2.04-2.34-4.99-3.51-8.87-3.51-2.25,0-4.26.42-6.1,1.34M338.02,253.17c-.97-.67-1.45-1.83-1.45-3.54,0-1.18.28-2.11.85-2.83.6-.7,1.38-1.22,2.42-1.59,1.21-.4,2.4-.67,3.66-.84,1.22-.12,2.85-.29,4.86-.48v7.62c-.86.82-1.84,1.44-2.95,1.91-1.06.46-2.14.68-3.18.68-1.84,0-3.25-.31-4.2-.94M333.45,224.11c-2.61.45-4.49.83-5.68,1.15v8.84s1.02,0,1.02,0c1.79-.75,3.6-1.4,5.48-1.87,1.87-.5,3.5-.74,4.88-.74,3.08,0,5.41.39,6.96,1.16,1.51.77,2.31,2.16,2.31,4.18v.2c-3.44.24-6.63.52-9.59.91-3,.39-5.54,1.11-7.69,2.09-2.13.97-3.74,2.29-4.85,3.98-1.16,1.67-1.72,3.87-1.72,6.57,0,3.3,1.13,6.05,3.35,8.2,2.19,2.17,5.01,3.26,8.34,3.26,1.83,0,3.23-.15,4.23-.39,1-.27,2.03-.63,3.09-1.13,1.09-.53,1.95-1.07,2.58-1.58.65-.52,1.39-1.11,2.18-1.75v3.88h11.76v-24.89c0-4.31-1.5-7.51-4.45-9.6-3.02-2.1-7.75-3.14-14.3-3.14-2.67,0-5.3.22-7.91.67M167.52,232.68c1.29-1.35,3.09-2.02,5.41-2.02s3.91.64,5.02,1.91c1.09,1.28,1.67,3.1,1.74,5.51h-14.3c.13-2.29.85-4.08,2.13-5.4M158.94,228.7c-3.58,3.56-5.35,8.32-5.35,14.29s1.9,10.82,5.71,14.1c3.83,3.29,9.3,4.95,16.46,4.95,1.96,0,3.64-.1,4.97-.28,1.38-.17,2.68-.42,3.98-.76,1.4-.32,2.49-.64,3.29-.98.8-.29,1.71-.65,2.64-1.01v-9.4h-1.23c-.51.37-1.18.79-2,1.26-.85.47-1.73.93-2.71,1.33-1.09.49-2.34.86-3.66,1.17-1.33.3-2.69.44-4.02.44-1.62,0-3.09-.14-4.41-.44-1.37-.31-2.58-.77-3.57-1.45-1.05-.69-1.88-1.59-2.51-2.73-.63-1.12-.98-2.56-1.11-4.25h25.93v-4.11c0-5.62-1.48-9.92-4.42-12.96-2.92-3.02-7.28-4.52-13.08-4.52-6.42,0-11.39,1.78-14.92,5.35M29.5,210.42v31.6c0,3.62-.7,6.28-2.06,7.91-1.36,1.68-3.48,2.49-6.4,2.49s-5.09-.86-6.41-2.57c-1.33-1.71-1.97-4.34-1.97-7.83v-31.6H0v32.32c0,6.33,1.81,11.13,5.44,14.42,3.67,3.27,8.85,4.93,15.6,4.93s12.23-1.69,15.78-5.01c3.54-3.36,5.3-8.15,5.3-14.37v-32.29h-12.62ZM95.1,219.29h12.52v-8.9h-12.52v8.9ZM262.71,219.29h12.47v-8.9h-12.47v8.9ZM295.02,250.74c-1.16-1.61-1.71-4.21-1.73-7.83,0-3.43.74-6.08,2.16-8,1.45-1.91,3.57-2.87,6.39-2.87.69,0,1.5.1,2.45.3.94.15,1.7.39,2.28.67v17.94c-.86.69-1.84,1.22-2.89,1.61-1.08.38-2.12.58-3.15.58-2.53,0-4.39-.78-5.51-2.39M306.57,210.39v15.56c-1.67-.83-3.16-1.47-4.45-1.88-1.27-.39-2.91-.58-4.88-.58-2.17,0-4.25.46-6.21,1.36-1.96.94-3.63,2.2-5,3.78-1.5,1.73-2.66,3.77-3.54,6.12-.87,2.34-1.28,5.11-1.28,8.3,0,5.77,1.25,10.38,3.79,13.84,2.5,3.47,5.94,5.19,10.28,5.19,1.28,0,2.38-.13,3.3-.32.91-.23,1.87-.55,2.8-.99.75-.34,1.61-.86,2.58-1.55,1-.71,1.85-1.36,2.61-1.98v3.84h11.81v-50.68h-11.81ZM380,250.74c-1.18-1.61-1.75-4.21-1.75-7.83s.75-6.08,2.14-8c1.44-1.91,3.58-2.87,6.42-2.87.68,0,1.49.1,2.43.3.96.15,1.71.39,2.29.66v17.94c-.87.69-1.85,1.22-2.92,1.61-1.04.38-2.1.58-3.11.58-2.55,0-4.42-.78-5.5-2.39M391.52,210.39v15.56c-1.68-.83-3.16-1.47-4.46-1.88-1.24-.39-2.88-.58-4.87-.58-2.19,0-4.27.46-6.21,1.36-1.97.94-3.63,2.2-4.98,3.78-1.53,1.73-2.69,3.77-3.58,6.12-.84,2.34-1.25,5.11-1.25,8.3,0,5.77,1.22,10.38,3.77,13.84,2.52,3.47,5.94,5.19,10.26,5.19,1.29,0,2.42-.13,3.32-.32.93-.23,1.86-.55,2.82-.99.71-.35,1.6-.86,2.56-1.56.98-.71,1.85-1.36,2.62-1.98v3.84h11.82v-50.68h-11.82Z"/>
          <g class="cls-3">
            <rect class="cls-1" y="210.39" width="403.34" height="51.7"/>
          </g>
        </g>
        <path class="cls-1" d="M326.75,297.33v26.67c-1,.66-2.07,1.23-3.24,1.63-1.18.39-2.19.61-3.06.61-1.38,0-2.49-.21-3.25-.61-.78-.39-1.34-.98-1.73-1.77-.39-.84-.63-1.89-.76-3.11-.11-1.23-.15-2.81-.15-4.75v-18.66h-12.23v24.49c0,4.74,1.08,8.28,3.28,10.63,2.14,2.36,5.15,3.52,9.01,3.52,2.45,0,4.54-.42,6.31-1.32,1.75-.86,3.7-2.15,5.82-3.84v4.13h12.14v-37.62h-12.14ZM272.68,325.05c-.92-.42-1.65-1.05-2.21-1.85-.58-.87-1.01-1.84-1.21-2.93-.21-1.11-.31-2.43-.31-4.03,0-3.18.71-5.62,2.1-7.4,1.44-1.76,3.6-2.66,6.41-2.66.88,0,1.73.09,2.58.25.85.18,1.57.41,2.18.67v16.57c-.97.64-1.93,1.13-2.92,1.51-1.03.34-2.08.52-3.12.52-1.44,0-2.59-.22-3.51-.64M266.58,298.44c-1.99.82-3.69,2-5.07,3.56-1.47,1.59-2.62,3.53-3.45,5.82-.79,2.28-1.23,4.85-1.23,7.72,0,6.29,1.35,10.98,3.98,14.06,2.7,3.09,6.48,4.62,11.4,4.62,1.85,0,3.65-.34,5.36-1.01,1.77-.67,3.31-1.59,4.65-2.71v.7c0,1.53-.15,2.84-.42,3.88-.29,1.04-.75,1.93-1.41,2.66-.66.76-1.71,1.35-3.04,1.72-1.34.41-3.01.6-5,.6-.98,0-1.93-.07-2.85-.22-.94-.17-1.86-.35-2.82-.59-.82-.23-1.63-.45-2.43-.72-.81-.26-1.51-.49-2.07-.72h-1.38v9.17c1.64.41,3.64.76,5.88,1.08,2.28.31,4.66.49,7.15.49,3.02,0,5.73-.31,8.19-.9,2.47-.6,4.57-1.57,6.33-2.92,1.74-1.34,3.11-3.18,4.12-5.54,1.04-2.38,1.55-5.23,1.55-8.62v-32.38h-11.45l-.45,1.63c-1.25-.8-2.62-1.43-4.16-1.92-1.53-.48-3.29-.73-5.21-.73-2.16,0-4.2.43-6.18,1.28M226.72,327.09c-.93-.63-1.43-1.8-1.43-3.53,0-1.16.31-2.1.89-2.82.54-.68,1.37-1.22,2.41-1.56,1.2-.42,2.39-.71,3.65-.86,1.22-.13,2.87-.29,4.85-.49v7.62c-.87.82-1.84,1.47-2.95,1.93-1.07.43-2.13.68-3.18.68-1.86,0-3.27-.32-4.24-.97M222.19,298.05c-2.6.43-4.47.82-5.66,1.14v8.86h1.02c1.79-.77,3.58-1.39,5.46-1.88,1.88-.5,3.48-.75,4.9-.75,3.06,0,5.38.39,6.93,1.17,1.57.75,2.32,2.17,2.32,4.17v.21c-3.41.22-6.6.52-9.59.92-3,.38-5.55,1.08-7.68,2.07-2.1.97-3.73,2.29-4.86,3.97-1.13,1.67-1.69,3.89-1.69,6.59,0,3.31,1.11,6.05,3.34,8.21,2.22,2.17,5.02,3.25,8.34,3.25,1.8,0,3.22-.14,4.21-.38,1-.27,2.04-.65,3.09-1.17,1.09-.5,1.96-1.03,2.58-1.54.66-.52,1.37-1.11,2.18-1.75v3.87h11.74v-24.87c0-4.31-1.46-7.51-4.44-9.6-2.98-2.1-7.73-3.15-14.29-3.15-2.65,0-5.3.24-7.92.67M77.57,306.8c1.3-1.33,3.11-2.01,5.42-2.01s3.89.64,5,1.9c1.1,1.27,1.67,3.09,1.75,5.53h-14.3c.13-2.29.85-4.11,2.13-5.42M69.17,302.63c-3.54,3.55-5.33,8.33-5.33,14.26s1.9,10.84,5.72,14.13c3.83,3.29,9.32,4.94,16.48,4.94,1.94,0,3.61-.09,4.96-.27,1.37-.18,2.68-.44,3.98-.76,1.39-.34,2.52-.67,3.3-.97.79-.3,1.69-.65,2.66-1.02v-9.43h-1.25c-.5.38-1.19.8-2.03,1.28-.79.48-1.7.93-2.67,1.33-1.07.49-2.29.87-3.65,1.16-1.31.3-2.68.44-4.04.44-1.63,0-3.07-.14-4.42-.44-1.35-.29-2.54-.78-3.55-1.45-1.04-.67-1.86-1.58-2.5-2.73-.65-1.13-1.01-2.55-1.12-4.25h25.93v-4.1c0-5.63-1.46-9.93-4.38-12.97-2.95-3.02-7.32-4.52-13.14-4.52-6.39,0-11.38,1.79-14.93,5.35M361.48,306.8c1.29-1.33,3.09-2.01,5.4-2.01s3.92.64,5.02,1.9c1.09,1.27,1.64,3.09,1.74,5.53h-14.3c.13-2.29.86-4.11,2.15-5.42M352.87,302.63c-3.58,3.55-5.35,8.34-5.36,14.27,0,6.11,1.94,10.84,5.77,14.13,3.77,3.29,9.28,4.94,16.45,4.94,1.95,0,3.62-.09,4.95-.27,1.39-.19,2.72-.44,3.98-.76,1.41-.34,2.53-.67,3.32-.97.77-.31,1.67-.65,2.65-1.02v-9.43h-1.26c-.52.38-1.2.8-2,1.28-.83.49-1.75.93-2.71,1.33-1.07.49-2.29.87-3.64,1.16-1.3.3-2.7.44-4.06.44-1.6,0-3.08-.14-4.42-.44-1.34-.29-2.54-.78-3.52-1.45-1.07-.67-1.91-1.58-2.54-2.73-.59-1.13-.98-2.55-1.09-4.25h25.91v-4.1c0-5.63-1.48-9.93-4.39-12.97-2.94-3.02-7.31-4.52-13.12-4.52-6.4,0-11.36,1.78-14.91,5.35M134.27,284.57v8.94h7.25v33.37h-7.25v8.96h27.12v-8.96h-7.26v-33.37h7.26v-8.94h-27.12ZM31.88,324.65c-1.15-1.6-1.71-4.2-1.71-7.8s.7-6.11,2.14-8.02c1.41-1.91,3.56-2.86,6.41-2.86.68,0,1.46.08,2.41.3.93.15,1.74.39,2.31.67v17.95c-.89.68-1.87,1.19-2.91,1.61-1.07.38-2.09.57-3.14.57-2.55,0-4.39-.8-5.51-2.41M43.45,284.28v15.6c-1.68-.87-3.16-1.49-4.43-1.88-1.28-.41-2.91-.61-4.9-.61-2.16,0-4.27.46-6.22,1.41-1.96.9-3.62,2.15-4.99,3.75-1.51,1.72-2.69,3.76-3.55,6.12-.83,2.34-1.3,5.12-1.3,8.31,0,5.75,1.27,10.4,3.81,13.84,2.51,3.44,5.96,5.16,10.25,5.16,1.3,0,2.38-.11,3.32-.29.93-.23,1.84-.54,2.8-.99.74-.36,1.6-.88,2.58-1.56,1.01-.71,1.88-1.36,2.63-1.95v3.8h11.82v-50.7h-11.82ZM185.35,328.04c-.82-.11-1.6-.3-2.4-.61v-18.36c1.04-.66,2.07-1.14,3.09-1.47,1.07-.33,2.13-.48,3.18-.48,2.39,0,4.14.76,5.3,2.33,1.13,1.56,1.7,4.17,1.7,7.83s-.67,6.36-2.12,8.21c-1.39,1.81-3.54,2.73-6.37,2.73-.77,0-1.6-.07-2.39-.18M171.12,284.57v50.7h11.36l.48-1.81c1.57.85,3.09,1.51,4.48,1.89,1.41.43,3.05.62,4.92.62,4.55,0,8.32-1.79,11.39-5.38,3.07-3.6,4.59-8.29,4.59-14.11s-1.19-10.49-3.59-13.83c-2.39-3.31-5.78-4.97-10.21-4.97-2.35,0-4.43.46-6.26,1.33-1.79.89-3.55,2.07-5.32,3.51v-17.94h-11.84ZM370.68,280.61l-6.97,12.79h8.04l10.12-12.79h-11.18Z"/>
        <path class="cls-1" d="M202.01,53.13c14.73,0,26.75-11.94,26.75-26.57S216.74,0,202.01,0s-26.75,11.93-26.75,26.57,12.02,26.57,26.75,26.57"/>
        <path class="cls-1" d="M298.79,152.27l-59.07-111.6-.13-.08c-2.53,7.13-7.59,13.56-13.39,17.93l21.68,74.42c.58,1.99,1.11,4.1,1.11,6.43,0,9.09-7.35,16.73-16.82,17.06h-60.68c-9.47-.33-16.82-7.98-16.82-17.06,0-2.33.52-4.44,1.11-6.43l22.03-74.4c-5.96-4.93-10.68-10.26-13.52-18.02l-59.42,111.75c-.89,2.66-1.56,5.54-1.56,8.53,0,14.62,11.8,26.37,25.73,26.37h145.9c13.59,0,25.06-11.75,25.06-26.37,0-2.99-.34-5.87-1.22-8.53"/>
        <path class="cls-1" d="M201.67,66.73c-4.87,0-9.24-.73-13.47-2.51l-14.25,58.18c-.67,2.72-1.78,5.87-1.78,8.86,0,14.63,12.14,13.84,26.85,13.84h5.34c14.59,0,27.26.79,27.26-13.84,0-2.99-1.09-6.03-1.78-8.86l-14.2-58c-3.36,1.19-6.92,1.93-10.62,2.17-1.1.1-2.21.16-3.34.16"/>
      </g>
      <g>
        <path class="cls-2" d="M806.13,194.82c-4.76-12.55-5.1-33.22-.77-45.92,4.33-12.7-.62-30.04-11.02-38.54-10.4-8.49-21.03-26.21-23.63-39.38-2.6-13.17-15.56-25.71-28.81-27.87-13.25-2.15-31.32-12.18-40.15-22.3-8.84-10.1-26.34-14.48-38.9-9.72-12.55,4.76-33.22,5.11-45.92.77-12.7-4.33-30.05.63-38.54,11.02-8.49,10.4-26.21,21.03-39.38,23.63-13.17,2.61-25.71,15.57-27.86,28.82-2.15,13.25-12.19,31.32-22.29,40.15-10.11,8.84-14.48,26.34-9.73,38.89,4.76,12.55,5.11,33.22.77,45.92-4.34,12.7.62,30.04,11.02,38.54,10.4,8.49,21.04,26.21,23.63,39.39,2.59,13.17,15.56,25.71,28.82,27.86,13.25,2.15,31.32,12.18,40.15,22.29,8.83,10.11,26.33,14.48,38.89,9.72,12.55-4.76,33.22-5.11,45.92-.77,12.7,4.33,30.04-.63,38.53-11.03,8.49-10.39,26.22-21.02,39.39-23.63,13.17-2.6,25.71-15.56,27.87-28.82,2.15-13.24,12.18-31.31,22.29-40.15,10.11-8.84,14.48-26.33,9.72-38.89M642.62,327.19c-84.28,0-152.59-68.32-152.59-152.6S558.35,22.01,642.62,22.01s152.6,68.31,152.6,152.59-68.32,152.6-152.6,152.6"/>
        <path class="cls-2" d="M642.62,22.09c-84.23,0-152.5,68.28-152.5,152.5s68.28,152.5,152.5,152.5,152.51-68.28,152.51-152.5S726.85,22.09,642.62,22.09M642.62,321.64c-81.21,0-147.05-65.83-147.05-147.04S561.41,27.55,642.62,27.55s147.05,65.83,147.05,147.05-65.84,147.04-147.05,147.04"/>
        <path class="cls-2" d="M581.74,92.64c-45.27,33.62-54.7,97.58-21.08,142.84,33.62,45.27,97.58,54.71,142.84,21.08,45.26-33.62,54.7-97.58,21.08-142.84-33.62-45.26-97.58-54.71-142.84-21.08M699.99,251.83c-42.65,31.68-102.91,22.78-134.6-19.87-31.68-42.65-22.79-102.91,19.87-134.59,42.65-31.68,102.91-22.78,134.59,19.86,31.68,42.65,22.79,102.91-19.86,134.6"/>
        <polygon class="cls-2" points="663.15 233.55 659.82 225.84 656.48 233.56 648.12 234.34 654.43 239.89 652.6 248.08 659.82 243.8 667.05 248.08 665.2 239.89 671.51 234.33 663.15 233.55"/>
        <polygon class="cls-2" points="629.18 233.55 625.85 225.84 622.52 233.56 614.15 234.34 620.46 239.89 618.63 248.08 625.85 243.8 633.08 248.08 631.24 239.89 637.54 234.33 629.18 233.55"/>
        <path class="cls-2" d="M598.54,154.46c2.87,0,4.91-1.59,7.88-9.78l1.54-4.25h8.91l-.1.56c-.46,2.71-.71,4.76-.71,7.12,0,3.89,2.51,6.35,6.14,6.35,3.32,0,6.33-2.21,7.98-4.61.63,2.96,2.82,4.61,5.79,4.61,3.65,0,6.78-2.63,8.38-5.11.69,3.14,3.32,5.11,6.57,5.11,3.51,0,6.65-2.32,8.41-4.8,1.15,3.24,3.78,4.8,6.9,4.8,2.91,0,5.68-2,7.83-5.73.1,3.74,2.56,5.73,5.17,5.73,3.33,0,5.74-2.35,5.94-4.4.1-.92-.26-1.49-.98-1.49,0,0-.46,1.44-1.95,1.44-1.33,0-2.2-1.13-1.53-4.76l2.15-12.19c.51-2.77,1.18-3.69,1.18-3.69,0,0-.82-.51-2.56-.51-2.51,0-3.79.67-4.61,2.51-1.18-1.49-2.97-2.51-5.53-2.51-5.99,0-12.64,5.38-12.64,16.8,0,.51.03.99.08,1.46-1.2,1.57-2.94,2.89-5.15,2.89-2.4,0-3.43-1.69-2.91-4.51l2.46-14.08h4.15c1.12,0,1.74-.61,1.74-1.49,0-.67-.36-1.08-.36-1.08h-5.07l.46-2.56c.67-3.58.16-5.07-3.79-5.07-1.89,0-2.66.46-2.66.46,0,0,.57,1.18-.05,4.4l-.51,2.77h-2.4c-1.13,0-1.74.61-1.74,1.49,0,.67.36,1.08.36,1.08h3.33l-1.89,10.8c-.27,1.55-.42,2.78-.49,3.76-1.36,2.5-3.51,4.02-5.44,4.02s-2.71-1.49-2.2-4.51l5.02-28.46c.61-3.58.15-5.07-3.79-5.07-1.89,0-2.66.46-2.66.46,0,0,.51,1.18-.05,4.4l-4.66,26.37c-.2,1.16-.32,2.22-.39,3.12-.96,1.53-2.81,3.69-4.93,3.69-1.74,0-2.82-1.28-2.31-4.25l4.2-24.11c.67-3.84.05-5.58-4.09-5.58-7.32,0-10.5,3.02-12.85,9.58l-3.89,10.8c-.61-.1-1.23-.15-1.84-.15-2.56,0-4.09,1.33-4.09,3.38,0,1.38.82,2.05.82,2.05,0,0,1.28-.92,3.58-1.18-2.51,6.09-4.92,7.84-7.17,7.84-1.23,0-1.79-.41-1.79-.41,0,0-.72.77-.72,2.56,0,2.36,1.43,3.94,3.58,3.94M672.66,132.35c1.95,0,2.92,1.43,3.38,2.46l-.46,2.4c-.98,5.12-3.69,12.8-7.32,12.8-1.89,0-3.02-1.38-3.02-4.25,0-8.24,3.94-13.41,7.42-13.41M613.33,125.54c1.23-3.48,3.69-6.66,7.12-6.66,0,0,0,.97-.26,2.51l-2.87,16.23c-3.74-.05-6.15-.41-8.09-.71l4.09-11.37Z"/>
        <path class="cls-2" d="M633.78,171.89c0,1.79,1.23,3.07,3.07,3.07,2.25,0,3.69-1.74,3.69-3.53s-1.23-3.22-3.18-3.22-3.58,1.59-3.58,3.69"/>
        <path class="cls-2" d="M727.06,167.75c.61-3.58.15-5.07-3.79-5.07-1.89,0-2.66.46-2.66.46,0,0,.51,1.18-.05,4.4l-2.46,14.28c-1.18-1.38-2.92-2.25-5.33-2.25-5.99,0-12.64,5.38-12.64,16.79,0,.51.03,1,.08,1.46-1.32,1.81-3.05,2.89-4.43,2.89-1.84,0-2.77-1.44-2.2-4.51l2.2-12.44c.51-2.77,1.18-3.69,1.18-3.69,0,0-.82-.51-2.56-.51-2.51,0-3.79.67-4.61,2.51-1.18-1.49-2.97-2.51-5.53-2.51-5.99,0-12.64,5.38-12.64,16.79,0,.51.03,1,.08,1.46-1.32,1.82-3.05,2.89-4.43,2.89-1.84,0-2.71-1.44-2.2-4.51l4.92-28.46c.61-3.58.15-5.07-3.79-5.07-1.89,0-2.66.46-2.66.46,0,0,.51,1.18-.05,4.4l-2.46,14.28c-1.18-1.38-2.92-2.25-5.33-2.25-5.99,0-12.64,5.38-12.64,16.79,0,.51.03.99.08,1.46-1.32,1.82-3.05,2.89-4.43,2.89-1.84,0-2.71-1.44-2.2-4.51l2-11.57c.62-3.58.16-5.07-3.79-5.07-1.89,0-2.67.46-2.67.46,0,0,.51,1.12-.05,4.4l-1.64,9.47c-.21,1.18-.32,2.25-.39,3.15-1.36,2.28-3.4,3.66-5.24,3.66s-2.71-1.49-2.2-4.51l5.02-28.46c.61-3.58.15-5.07-3.79-5.07-1.89,0-2.66.46-2.66.46,0,0,.51,1.18-.05,4.4l-4.66,26.37c-.2,1.18-.32,2.25-.39,3.16-1.36,2.28-3.37,3.65-4.93,3.65-1.84,0-2.77-1.44-2.2-4.51l2.2-12.44c.51-2.77,1.18-3.69,1.18-3.69,0,0-.82-.51-2.56-.51-2.51,0-3.79.67-4.6,2.51-1.18-1.49-2.97-2.51-5.53-2.51-5.99,0-12.64,5.38-12.64,16.79,0,.45.02.87.06,1.29-2.52,1.88-6.28,3.27-10.81,3.27-6.86,0-11.06-4.35-11.06-12.24,0-10.55,5.84-19.1,11.73-19.1,2.51,0,4.2,1.59,4.2,4.3,0,5.74-3.84,7.27-3.84,7.27,0,0,.82,1.74,3.33,1.74,3.18,0,6.25-2.61,6.25-7.42,0-4.56-3.38-8.71-9.78-8.71-10.6,0-19,9.01-19,22.48,0,9.93,6.71,15.92,15.46,15.92,6.37,0,11.39-2.55,14.02-5,1.11,3.38,3.79,5,6.97,5,2.92,0,5.73-2,7.83-5.78.26,3.69,2.61,5.78,5.99,5.78s6.27-2.34,7.85-4.68c.6,3.01,2.81,4.68,5.81,4.68,3.48,0,6.49-2.39,8.14-4.76.58,3.06,2.8,4.76,5.83,4.76,3.44,0,6.26-2.33,7.85-4.67,1.18,3.15,3.78,4.67,6.85,4.67s5.74-2.05,7.88-5.84c.2,3.74,2.61,5.84,5.99,5.84s6.26-2.33,7.85-4.67c1.18,3.15,3.78,4.67,6.85,4.67s5.74-2,7.83-5.78c.26,3.69,2.61,5.78,5.99,5.78s6.26-2.33,7.84-4.66c1.18,3.15,3.78,4.66,6.85,4.66s5.74-2.05,7.88-5.84c.05,3.84,2.56,5.84,5.17,5.84,3.33,0,5.74-2.36,5.94-4.4.1-.92-.26-1.49-.98-1.49,0,0-.46,1.44-1.94,1.44-1.33,0-2.15-1.08-1.54-4.76l4.87-28.21ZM603.79,187.92c-.98,5.12-3.69,12.8-7.32,12.8-1.89,0-3.02-1.38-3.02-4.25,0-8.24,3.95-13.42,7.43-13.42,1.94,0,2.92,1.44,3.38,2.46l-.46,2.4ZM659.94,187.92c-.97,5.12-3.69,12.8-7.32,12.8-1.89,0-3.02-1.38-3.02-4.25,0-8.24,3.94-13.42,7.42-13.42,1.95,0,2.92,1.44,3.38,2.46l-.46,2.4ZM688.51,187.92c-.97,5.12-3.69,12.8-7.32,12.8-1.89,0-3.02-1.38-3.02-4.25,0-8.24,3.94-13.42,7.42-13.42,1.95,0,2.92,1.44,3.38,2.46l-.46,2.4ZM717.02,187.92c-.97,5.12-3.69,12.8-7.32,12.8-1.89,0-3.02-1.38-3.02-4.25,0-8.24,3.94-13.42,7.42-13.42,1.95,0,2.92,1.44,3.38,2.46l-.46,2.4Z"/>
        <path class="cls-2" d="M556.35,276.36c1.26,1.01,2.37,1.38,3.35,1.13.98-.26,2.08-1.14,3.28-2.64l8.85-11.05,3.86,3.1-9.29,11.6c-1.87,2.33-3.88,3.55-6.04,3.65-2.16.1-4.41-.78-6.76-2.67-2.49-1.99-3.85-4-4.09-6.03-.24-2.03.6-4.24,2.51-6.63l9.21-11.5,3.89,3.12-8.79,10.97c-1.19,1.49-1.8,2.76-1.85,3.82-.05,1.06.58,2.11,1.86,3.14"/>
        <polygon class="cls-2" points="582.65 278.89 575.32 293.56 571.28 291.55 581.67 270.76 586.94 273.39 587.46 292.06 594.82 277.32 598.83 279.33 588.44 300.12 583.34 297.57 582.65 278.89"/>
        <rect class="cls-2" x="593.29" y="290.95" width="23.24" height="4.94" transform="translate(145.17 783.98) rotate(-72.73)"/>
        <path class="cls-2" d="M618.04,285.15l9.09,1.4c1.06.17,1.98.41,2.77.72.78.32,1.41.68,1.87,1.08.46.4.83.87,1.08,1.41.26.53.41,1.09.45,1.65.05.56.02,1.17-.09,1.83-.23,1.46-.81,2.56-1.76,3.32-.95.76-2.09,1.21-3.42,1.37v.06c1.76.48,3.01,1.27,3.74,2.36.73,1.09.97,2.45.72,4.07-.14.92-.41,1.71-.81,2.39-.4.67-.88,1.21-1.46,1.61-.57.4-1.25.71-2.03.91-.78.2-1.61.3-2.48.31-.87,0-1.83-.08-2.86-.24l-8.36-1.29,3.55-22.97ZM622.47,305.48c.73.11,1.34.17,1.85.17.51,0,.99-.07,1.44-.22.45-.14.81-.4,1.07-.77.26-.37.44-.86.53-1.47.1-.62.08-1.15-.05-1.59-.14-.44-.38-.8-.74-1.07-.36-.27-.75-.48-1.17-.62-.42-.15-.93-.26-1.53-.36l-2.97-.46-.93,6,2.51.39ZM623.27,295.68c.5.08.96.12,1.36.15.41.02.83,0,1.26-.07.44-.06.81-.18,1.12-.36.32-.17.59-.44.82-.79.24-.36.39-.79.47-1.31.08-.49.07-.9-.01-1.26-.08-.35-.21-.64-.39-.85-.17-.22-.43-.4-.78-.56-.35-.16-.69-.27-1-.34-.32-.07-.73-.15-1.25-.23l-2.54-.39-.88,5.72,1.81.28Z"/>
        <path class="cls-2" d="M661.49,310.46l-5.42.22-2.15-5.56-7.72.31-1.57,5.71-5.1.21,6.67-23.53,6.16-.25,9.15,22.89ZM649.35,292.35l-2.48,9.11,5.87-.24-3.24-8.87h-.14Z"/>
        <path class="cls-2" d="M684.84,302.5c-.2,1.1-.83,2.08-1.88,2.94-1.06.85-2.31,1.46-3.76,1.82-1.65.41-3.17.5-4.55.25-1.38-.25-2.58-.79-3.59-1.62-1.01-.83-1.87-1.87-2.57-3.13-.7-1.26-1.26-2.72-1.68-4.39-.61-2.44-.74-4.66-.37-6.66.36-2,1.25-3.7,2.65-5.11,1.41-1.41,3.29-2.41,5.64-3,1.26-.32,2.43-.45,3.52-.41s2.11.27,3.06.68c.95.41,1.79,1.07,2.52,1.98s1.32,2.04,1.76,3.41l-4.38,1.54c-.23-.63-.48-1.17-.78-1.62-.3-.45-.66-.84-1.1-1.17-.44-.33-.97-.54-1.59-.61-.62-.08-1.33-.01-2.12.18-1.95.49-3.24,1.52-3.89,3.09s-.66,3.58-.05,6.04c.67,2.69,1.62,4.55,2.86,5.59,1.23,1.04,2.83,1.32,4.8.83,1.46-.37,2.49-1.02,3.12-1.97.62-.95.79-1.98.51-3.11l-.2-.82-4.11,1.03-.88-3.51,8.85-2.21,2.94,11.74-3.5.87-1.22-2.63Z"/>
        <path class="cls-2" d="M707.05,292.72c1.44-.71,2.26-1.56,2.44-2.56.19-.99-.15-2.36-1-4.09l-6.26-12.69,4.44-2.19,6.58,13.32c1.32,2.68,1.57,5.02.75,7.02-.82,2-2.57,3.66-5.27,5-2.86,1.41-5.26,1.79-7.2,1.15-1.94-.65-3.59-2.34-4.95-5.08l-6.52-13.21,4.47-2.2,6.22,12.6c.84,1.71,1.74,2.8,2.68,3.3.94.49,2.15.37,3.63-.36"/>
        <path class="cls-2" d="M736.34,273.16l2.53,3.32-12.18,9.25-14.07-18.5,11.73-8.91,2.5,3.29-7.8,5.93,3.31,4.35,7.34-5.58,2.45,3.22-7.34,5.58,3.28,4.32,8.24-6.27ZM715.32,263.09l-.4-5.34,4.14-3.15-.86,6.62-2.88,1.88Z"/>
        <path class="cls-2" d="M542.55,123.57l-1.92,5.07-5.96-.19-2.73,7.23,4.64,3.68-1.81,4.78-19.04-15.35,2.18-5.76,24.64.54ZM521.13,127.65l7.4,5.85,2.08-5.5-9.43-.49-.05.13Z"/>
        <path class="cls-2" d="M549.14,113.85c-3.81,6.05-9.03,6.99-15.66,2.81-1.56-.98-2.84-2.08-3.86-3.3-1.02-1.22-1.73-2.51-2.14-3.88-.41-1.37-.49-2.8-.24-4.32.26-1.51.86-3.03,1.81-4.54,1.45-2.31,3.19-3.78,5.22-4.42,2.02-.64,4.26-.26,6.7,1.13l-2.08,4.04c-1.46-.76-2.7-1.02-3.72-.77-1.02.24-1.93,1-2.72,2.26-1.03,1.63-1.27,3.24-.72,4.82.55,1.58,1.96,3.09,4.24,4.52,2.34,1.47,4.29,2.13,5.87,1.99,1.58-.14,2.86-1.01,3.86-2.59.83-1.33,1.15-2.5.94-3.52-.2-1.02-.81-2-1.79-2.96l3.03-3.37c.84.69,1.5,1.46,1.99,2.3.49.84.81,1.67.95,2.49.14.83.16,1.67.06,2.55-.11.87-.31,1.69-.6,2.47-.3.78-.68,1.53-1.14,2.27"/>
        <path class="cls-2" d="M564.92,93.73l-9.57-2.72-2.18,2.31,6.42,6.06-3.37,3.57-16.9-15.96,6.21-6.58c.77-.82,1.55-1.47,2.33-1.95.78-.49,1.52-.8,2.2-.94s1.36-.16,2.04-.05c.67.11,1.29.32,1.85.63.57.31,1.11.71,1.63,1.2,2.31,2.18,3,4.67,2.08,7.48l10.91,3.08-3.65,3.86ZM552.09,88.81c.8-.85,1.29-1.74,1.46-2.67.19-.97-.18-1.89-1.12-2.79-.79-.75-1.59-1.04-2.38-.89-.8.16-1.66.73-2.6,1.71l-1.87,1.98,4.76,4.5,1.74-1.85Z"/>
        <polygon class="cls-2" points="580.86 75.68 583.33 79.05 570.99 88.09 557.25 69.36 569.12 60.64 571.57 63.98 563.67 69.77 566.91 74.18 574.34 68.73 576.73 71.99 569.3 77.44 572.51 81.81 580.86 75.68"/>
        <path class="cls-2" d="M576.61,56.03l7.38-3.46c3.54-1.66,6.58-2,9.12-1.03,2.54.98,4.58,3.09,6.1,6.33.77,1.64,1.24,3.21,1.42,4.73.18,1.52.06,2.96-.36,4.33-.42,1.38-1.21,2.65-2.38,3.83-1.16,1.18-2.67,2.2-4.52,3.07l-6.88,3.23-9.88-21.04ZM591.47,70.33c2.34-1.1,3.73-2.47,4.18-4.13.45-1.66.14-3.64-.94-5.94-.61-1.3-1.25-2.34-1.92-3.11-.67-.77-1.38-1.28-2.16-1.56-.78-.27-1.59-.34-2.44-.21-.85.14-1.81.46-2.9.97l-2.53,1.18,6.49,13.84,2.21-1.04Z"/>
        <rect class="cls-2" x="605" y="44.37" width="4.93" height="23.24" transform="translate(8.65 172.49) rotate(-16.28)"/>
        <polygon class="cls-2" points="620.15 45.42 613.38 46.43 612.76 42.31 631.14 39.57 631.76 43.69 625.06 44.69 627.88 63.55 622.96 64.29 620.15 45.42"/>
        <path class="cls-2" d="M654.9,62.95l-5.42-.11-1.81-5.68-7.72-.15-1.91,5.61-5.11-.1,8.07-23.09,6.16.12,7.76,23.4ZM643.87,44.14l-3.03,8.94,5.88.11-2.71-9.05h-.14Z"/>
        <path class="cls-2" d="M666.32,65.88c-6.97-1.55-9.62-6.15-7.92-13.79.4-1.8,1-3.38,1.81-4.75.81-1.37,1.78-2.47,2.93-3.32,1.15-.85,2.47-1.41,3.98-1.68,1.51-.27,3.14-.21,4.88.18,2.66.59,4.64,1.73,5.92,3.42,1.28,1.69,1.68,3.92,1.2,6.69l-4.51-.6c.22-1.63.05-2.88-.52-3.76-.57-.88-1.58-1.48-3.04-1.8-1.89-.42-3.48-.1-4.79.95-1.3,1.05-2.25,2.89-2.83,5.52-.6,2.69-.56,4.76.1,6.19.67,1.44,1.92,2.36,3.74,2.76,1.53.34,2.74.24,3.63-.29.89-.53,1.62-1.43,2.19-2.69l4.2,1.72c-.38,1.02-.88,1.9-1.5,2.64-.62.74-1.3,1.32-2.03,1.73-.73.41-1.52.72-2.37.91s-1.7.28-2.53.26c-.83-.02-1.67-.12-2.52-.31"/>
        <rect class="cls-2" x="674.01" y="56.8" width="23.24" height="4.94" transform="translate(383.04 677.36) rotate(-68.86)"/>
        <path class="cls-2" d="M696.88,77.97c-1.3-.76-2.38-1.62-3.23-2.56-.85-.94-1.45-1.93-1.82-2.94-.37-1.02-.54-2.1-.52-3.24.02-1.14.22-2.29.6-3.44.38-1.15.93-2.34,1.64-3.55.88-1.51,1.9-2.77,3.06-3.79,1.16-1.02,2.42-1.77,3.76-2.25,1.35-.48,2.8-.61,4.36-.41,1.56.2,3.13.77,4.72,1.7,1.58.92,2.81,2,3.71,3.22.9,1.22,1.43,2.51,1.6,3.87.18,1.36.09,2.73-.25,4.13-.34,1.4-.93,2.81-1.76,4.24-.95,1.63-2.01,2.98-3.17,4.06-1.16,1.07-2.41,1.84-3.74,2.32-1.34.48-2.77.61-4.29.39-1.52-.22-3.09-.8-4.69-1.74M699.16,74.45c1.59.93,3.15,1.11,4.68.56,1.53-.56,2.99-2.02,4.38-4.39,1.33-2.27,1.89-4.2,1.71-5.8-.19-1.61-1.07-2.87-2.63-3.79-1.67-.98-3.3-1.17-4.9-.58-1.6.58-3.06,2.01-4.38,4.27-1.36,2.32-1.91,4.28-1.66,5.89.25,1.61,1.19,2.89,2.81,3.84M707.63,54.95l4.8-2.4,4.49,2.63-6.44,1.73-2.85-1.96Z"/>
        <polygon class="cls-2" points="724.06 76.65 712.9 88.68 709.59 85.61 725.39 68.57 729.71 72.57 724.97 90.64 736.17 78.56 739.46 81.61 723.66 98.65 719.47 94.78 724.06 76.65"/>
        <path class="cls-2" d="M750.88,95.65l4.24,6.96c2.03,3.34,2.7,6.32,2,8.95-.7,2.63-2.57,4.88-5.64,6.75-1.54.94-3.06,1.58-4.55,1.92-1.49.34-2.94.37-4.35.1-1.41-.27-2.77-.92-4.06-1.95-1.3-1.03-2.48-2.41-3.54-4.16l-3.95-6.5,19.86-12.08ZM738.26,111.96c1.34,2.2,2.86,3.44,4.56,3.71,1.7.27,3.63-.26,5.8-1.58,1.24-.75,2.2-1.5,2.89-2.24.69-.75,1.13-1.52,1.32-2.32.19-.8.17-1.61-.06-2.44-.23-.83-.65-1.76-1.27-2.78l-1.45-2.38-13.05,7.94,1.27,2.09Z"/>
        <polygon class="cls-2" points="751.82 141.07 747.91 142.51 742.62 128.16 764.43 120.13 769.52 133.95 765.64 135.38 762.26 126.19 757.12 128.08 760.31 136.72 756.51 138.12 753.33 129.48 748.24 131.35 751.82 141.07"/>
      </g>
    </g>
  </g>
</svg>