<?xml version="1.0" encoding="UTF-8"?>
<svg id="Capa_2" data-name="Capa 2" xmlns="http://www.w3.org/2000/svg" xmlns:xlink="http://www.w3.org/1999/xlink" viewBox="0 0 1082.24 169.13">
  <defs>
    <style>
      .cls-1 {
        fill: #013e7c;
      }

      .cls-2 {
        fill: url(#_Безымянный_градиент_10-3);
        fill-rule: evenodd;
      }

      .cls-3 {
        fill: #fff;
      }

      .cls-4 {
        fill: url(#_Безымянный_градиент_10-2);
      }

      .cls-5 {
        fill: url(#_Безымянный_градиент_10-4);
      }

      .cls-6 {
        fill: url(#_Безымянный_градиент_10);
      }
    </style>
    <linearGradient id="_Безымянный_градиент_10" data-name="Безымянный градиент 10" x1="426.66" y1="92.51" x2="598.82" y2="92.51" gradientUnits="userSpaceOnUse">
      <stop offset="0" stop-color="#905116"/>
      <stop offset=".12" stop-color="#a77332"/>
      <stop offset=".39" stop-color="#e2c87c"/>
      <stop offset=".51" stop-color="#fff29f"/>
      <stop offset=".71" stop-color="#e0b864"/>
      <stop offset="1" stop-color="#b86914"/>
    </linearGradient>
    <linearGradient id="_Безымянный_градиент_10-2" data-name="Безымянный градиент 10" x1="480.38" y1="91.53" x2="493.61" y2="91.53" xlink:href="#_Безымянный_градиент_10"/>
    <linearGradient id="_Безымянный_градиент_10-3" data-name="Безымянный градиент 10" x1="17.25" y1="46.92" x2="44.27" y2="46.92" xlink:href="#_Безымянный_градиент_10"/>
    <linearGradient id="_Безымянный_градиент_10-4" data-name="Безымянный градиент 10" x1="1031.18" y1="37.81" x2="1054.24" y2="37.81" xlink:href="#_Безымянный_градиент_10"/>
  </defs>
  <g id="Capa_1-2" data-name="Capa 1">
    <g>
      <rect class="cls-1" width="1082.24" height="169.13" rx="20.41" ry="20.41"/>
      <g>
        <path class="cls-3" d="M317.75,90.26c0-1.48.02-2.96,0-4.44-.23-12.55-.48-25.1-.69-37.64-.03-1.68.07-3.37.13-5.05.1-2.73,1.42-4.71,4.1-5.1,3.72-.54,7.51-.81,11.27-.83,2.64-.02,4.35,1.96,4.31,4.75-.07,6.33-.26,12.66-.53,18.99-.47,10.97-1.23,21.92-1.51,32.89-.3,11.97-.18,23.95-.26,35.92,0,.41-.1.81-.09,1.21.13,5.36-4.1,7.66-8.63,8.12-.75.08-1.51.04-2.27.02-4.68-.14-6.19-1.31-7.91-5.65-4.61-11.61-9.29-23.19-13.95-34.79-.21-.51-.49-.99-1.09-1.46-.13,1.16-.31,2.32-.37,3.48-.49,10.62-.94,21.24-1.43,31.86-.22,4.83-2.19,6.72-7.01,6.64-2.55-.05-5.11-.23-7.64-.52-2.68-.31-3.99-1.78-3.85-4.46.56-10.96,1.15-21.93,1.83-32.88.41-6.61.89-13.22,1.58-19.8,1.17-11.21,2.49-22.39,3.83-33.58.4-3.37,2.24-5.1,5.22-5.34,2.3-.19,4.12.82,5.05,2.94,4.39,9.93,8.78,19.86,13.12,29.81,2.02,4.63,3.94,9.31,5.91,13.97.15.36.37.69.55,1.03l.33-.09Z"/>
        <path class="cls-3" d="M97.02,93.99c.24-2.23.46-4.46.72-6.68,1.52-12.86,2.53-25.79,5.41-38.46.37-1.64.82-3.28,1.43-4.84,1.06-2.74,3.21-4.22,6.07-4.6,2.74-.36,5.43-.2,8.08.73,3.14,1.11,4.54,3.13,4.15,6.54-.56,4.91-1.24,9.8-1.77,14.71-1.52,14.09-2.99,28.19-4.47,42.29-.81,7.76-1.85,15.48-4.2,22.94-.71,2.25-1.64,4.5-2.82,6.53-2.1,3.6-5.56,4.67-9.47,3.2-3-1.12-5.3-3.17-7.01-5.8-4.25-6.55-7.82-13.46-10.66-20.74-1.03-2.63-2.04-5.26-3.05-7.89-.15,0-.3.02-.45.03-.33,2.02-.62,4.04-1.01,6.05-1.51,7.81-2.94,15.65-4.64,23.42-1.07,4.93-4.02,6.3-8.72,4.44-1.51-.6-3.02-1.23-4.44-2.01-3.68-2.03-4.84-4.37-4.15-8.51.98-5.85,1.97-11.69,3.11-17.51,2.24-11.45,4.45-22.92,6.95-34.31,1.19-5.44,2.92-10.77,4.62-16.08.7-2.18,1.7-4.37,3.02-6.23,3.12-4.39,8.54-4.37,11.18.29,2,3.54,3.43,7.52,4.45,11.47,2.49,9.67,4.59,19.45,6.85,29.18.14.62.32,1.22.49,1.83.11,0,.22,0,.33.01Z"/>
        <path class="cls-3" d="M360.7,113.4c-1.29,7.24-2.52,14.21-3.78,21.18-.2,1.08-.43,2.18-.81,3.2-1.17,3.11-3.22,4.35-6.52,3.99-2.54-.27-5.09-.5-7.6-.96-4.16-.76-4.96-1.94-4.32-6.07,1.58-10.22,3.1-20.44,4.82-30.64,2.85-16.85,6.26-33.58,11.51-49.88,1.14-3.54,2.32-7.06,3.62-10.54.46-1.23,1.18-2.42,2.04-3.42,3.42-4,7.98-4.15,11.1.07,2.39,3.23,4.36,6.88,5.9,10.6,4.96,12,8.17,24.57,11.43,37.11,4.07,15.68,7.94,31.41,11.88,47.13.2.78.28,1.6.32,2.41.19,3.52-1.45,6.09-4.86,6.89-2.98.7-6.05,1.06-9.11,1.35-2.39.22-3.78-1.31-4.89-3.28-2.21-3.92-3.02-8.26-4.01-12.56-1.11-4.81-2.25-9.61-3.3-14.44-.21-.99-.59-1.31-1.59-1.36-3.82-.2-7.63-.51-11.83-.8ZM363.79,100.46c2.42.15,4.54.28,6.9.42-1.18-5.02-2.3-9.8-3.43-14.59-.1,0-.21,0-.31.01-1.03,4.62-2.06,9.25-3.16,14.15Z"/>
        <path class="cls-3" d="M239.57,85.02c-6.64-3.23-9.69-8.48-10.29-15.26-.49-5.45.96-10.43,3.71-15.15,6.76-11.59,17.25-16.59,30.19-17.32,2.14-.12,4.3-.1,6.44.02,3.28.18,4.98,1.99,4.99,5.29.01,2.73-.06,5.46-.19,8.19-.17,3.6-2.17,5.28-5.72,5.76-3.89.52-7.77,1.31-11.55,2.37-3.44.96-6.1,3.32-8.36,6.05-.65.79-1.16,1.76-1.51,2.72-.83,2.35-.07,4.2,2.26,5.1,1.6.61,3.34,1.03,5.05,1.15,2.84.19,5.69.03,8.54.09,3.66.08,5.3,1.77,5.4,5.37.06,2.21.22,4.41.22,6.62,0,3.85-1.43,5.6-5.12,6.63-3.3.92-6.64,1.75-9.84,2.94-3.19,1.19-6.06,3.12-7.97,6-1.09,1.64-1.98,3.61-2.27,5.53-.56,3.73,2.03,5.99,4.88,7.53,2.25,1.22,4.85,2.03,7.38,2.45,3.61.59,7.23.22,10.86-.72,4.83-1.26,8.78.53,8.61,6.1-.09,3.05-.67,6.11-1.32,9.1-.72,3.29-3.08,5.17-6.16,6.33-7.71,2.88-15.59,3.23-23.69,2.2-9.52-1.21-15.04-7.16-18.89-15.23-5.71-11.96-1.76-24.65,6.49-33.65,1.82-1.98,4.2-3.45,6.32-5.15.39-.31.83-.57,1.54-1.06Z"/>
        <path class="cls-3" d="M176.85,84.05c.46,10.58-1.68,21.37-5.94,31.8-2.72,6.65-6.81,12.27-12.17,17-9.77,8.62-22.47,5.79-29.72-2.82-4.99-5.92-6.96-12.97-7.09-20.53-.25-14.12,1.68-27.93,6.56-41.25,1.69-4.62,3.85-9.01,7.05-12.76,5.73-6.72,12.72-10.96,21.96-10.33,6.52.44,11.24,3.68,13.94,9.52,3.42,7.41,5.23,15.26,5.42,23.45.04,1.74,0,3.49,0,5.93ZM159.37,81.58c0-2.21.28-4.46-.07-6.61-.42-2.54-1.24-5.04-2.18-7.44-.63-1.6-2.19-1.96-3.85-1.5-2.19.61-4.07,1.7-5.47,3.53-7.05,9.2-10.23,19.73-10.22,31.2,0,2.93.78,6.04,1.94,8.76,2.5,5.85,9.49,6.46,13.13,1.25,1.48-2.12,2.75-4.48,3.64-6.91,2.62-7.17,3.5-14.65,3.09-22.27Z"/>
        <path class="cls-3" d="M200.39,92.62c.91-3.59,1.75-7.2,2.74-10.77,2.81-10.13,5.68-20.24,8.54-30.35.62-2.18,1.29-4.34,2.01-6.49,1.08-3.24,2.91-4.76,6.28-4.77,2.18,0,4.42.26,6.52.8,3.03.78,4.67,2.84,4.29,5.91-.48,3.89-1.26,7.8-2.4,11.56-4.68,15.46-9.47,30.88-14.36,46.27-2.39,7.53-4.94,15.02-7.66,22.43-1.01,2.75-2.56,5.34-4.17,7.8-1.52,2.31-3.72,4.04-6.72,3.52-3.23-.57-6.05-1.97-6.85-5.57-1.21-5.38-2.73-10.73-3.37-16.19-1.81-15.34-3.26-30.73-4.8-46.11-.75-7.46-1.4-14.93-2.04-22.39-.12-1.44-.09-2.91.02-4.35.14-1.91,1.17-3.32,3.02-3.87,3-.9,6.03-1.74,9.09-2.43,2.99-.68,5.45,1.11,5.7,4.32.42,5.33.5,10.68.9,16.01.84,11.3,1.8,22.58,2.71,33.87.02.26.08.52.12.79l.43.03Z"/>
      </g>
      <g>
        <path class="cls-6" d="M513.2,129.09c-23.4,0-46.79-.01-70.19.01-3.36,0-6.71.13-10.07.29-2.09.1-3.83-.3-5-2.24-1.36-2.25-1.96-4.62-.17-6.74,2.07-2.46,4.3-4.87,6.8-6.87,5.43-4.34,11.14-8.31,16.61-12.6,5.72-4.49,5.29-3.61,1.07-8.59-7.54-8.89-15.39-17.53-23.1-26.29-1.53-1.74-3.16-3.52-1.97-6.12,1.17-2.55,3.48-2.94,5.93-2.97,12.02-.15,24.04-.32,36.05-.42,8.07-.07,16.14,0,24.21-.05,19.86-.1,39.72-.18,59.58-.35,10.01-.09,20.03-.37,30.04-.51,2.65-.04,5.34-.11,7.94.32,1.89.31,3.85,1.14,5.42,2.24,2.03,1.42,1.66,4.2-.33,5.94-8.92,7.8-17.31,16.14-25.23,24.97-.93,1.03-.64,1.74.13,2.55,5.31,5.59,10.58,11.22,15.93,16.77,3.11,3.22,6.36,6.31,9.47,9.52.8.83,1.48,1.85,1.96,2.91,1.26,2.76.08,5.29-2.75,6.42-2.17.86-4.36,1.17-6.71,1.18-20.92.08-41.84.26-62.76.4-4.3.03-8.6,0-12.9,0v.24ZM472.32,93.52c.21,0,.42,0,.62,0,0,6.83-.05,13.65.02,20.48.04,4.33,4.09,7.05,7.97,5.07,3.42-1.74,6.82-3.82,9.65-6.4,7-6.37,10.71-14.5,11.3-23.97.31-5-.16-9.96-2.65-14.39-4.1-7.3-11.85-10.32-20.86-8.43-4.53.95-6.09,2.99-6.06,7.68.04,6.65,0,13.3,0,19.96ZM517.5,92.88c-3.45,2.76-5.64,6.26-6.8,10.39-1.82,6.47.65,12.08,6.28,15.06,7.07,3.74,14.03,2.53,20.98-.15,2.06-.8,2.89-3.03,2.2-4.98-.68-1.94-2.69-3.09-4.81-2.63-1.72.37-3.42.87-5.12,1.34-3.4.95-6.68.72-9.69-1.17-.81-.51-1.69-1.44-1.88-2.32-.79-3.64,1.76-8.08,5.28-9.4,1.65-.62,3.38-1.01,5.06-1.54,2.23-.7,3.79-2.74,3.73-4.83-.06-2.08-1.41-3.53-3.9-4.15-.8-.2-1.61-.35-2.41-.55-6.15-1.54-6.84-5.08-3.14-9.98.25-.33.54-.62.84-.91,2.88-2.79,6.17-4.66,10.29-4.85,2-.09,3.42-1.6,3.59-3.5.17-1.87-.98-3.61-2.96-4.03-1.24-.26-2.6-.34-3.84-.11-6.32,1.13-11.41,4.39-15.19,9.52-2.5,3.4-3.94,7.24-3.1,11.6.57,2.96,2.24,5.25,4.57,7.21Z"/>
        <path class="cls-4" d="M481.2,109.59c-.12-2.41-.28-4.39-.32-6.37-.17-9.24-.27-18.49-.5-27.74-.04-1.6.5-1.97,1.98-2.01,6.83-.18,10.41,2.98,11.1,10.2.92,9.73-2.49,17.78-9.78,24.22-.64.57-1.43.98-2.48,1.7Z"/>
      </g>
      <g>
        <path class="cls-3" d="M678.26,84.22c1.65-1.43,2.99-2.38,4.07-3.56,2.45-2.69,4.68-5.59,7.18-8.23,1.01-1.07,2.43-2.13,3.82-2.38,2.52-.45,4.58,2.28,3.98,4.87-.11.48-.27,1-.56,1.39-4.54,6.12-9.11,12.24-16.1,15.84-1.25.64-1.5,1.35-1.41,2.64.82,11.65,1.58,23.31,2.36,34.97.04.56.08,1.13.08,1.69.01,2.36-1.14,3.95-3.11,4.31-2.07.38-4.11-.65-4.67-2.87-.58-2.29-.75-4.7-.91-7.07-.68-9.65-1.29-19.3-1.94-28.95-.02-.3-.11-.59-.19-1.01-6.07,1.58-12.17,2.21-18.34,2.13-.57,0-1.13,0-1.7-.04-2.84-.17-2.87-.19-3.75,2.63-2.64,8.52-5.26,17.05-7.86,25.57-.24.78-.3,1.6-.49,2.39-.5,2.1-2.08,3.37-4.03,3.27-1.85-.09-3.46-1.42-3.62-3.47-.12-1.52.08-3.15.53-4.61,4.9-15.77,9.76-31.56,14.88-47.26,2.63-8.05,5.7-15.96,8.7-23.88.66-1.73,1.71-3.38,2.87-4.84,3.46-4.38,8.75-4.47,11.91.09,1.82,2.62,3.31,5.75,3.94,8.85,1.6,7.93,2.64,15.97,3.9,23.97.15.98.26,1.96.46,3.56ZM650.62,89.72c6.64.26,12.73-.15,18.62-2.17.38-.13.76-1.11.69-1.63-1.26-9.06-2.55-18.13-3.96-27.17-.26-1.65-1.1-3.22-1.68-4.82-.21,0-.42.01-.63.02-5.61,11.36-8.62,23.67-13.04,35.77Z"/>
        <path class="cls-3" d="M845.27,114.89c.26-6.59.55-13.18.78-19.77.37-10.42.7-20.84,1.06-31.27.08-2.38,1.59-4.04,3.75-4.2,2.03-.15,3.91,1.24,4.23,3.49.26,1.78.13,3.62.08,5.43-.28,10.11-.53,20.22-.89,30.33-.42,11.93-.95,23.85-1.41,35.78-.09,2.26-.93,4.02-3.07,4.98-2.47,1.11-4.9.21-5.97-2.54-1.75-4.51-3.36-9.07-4.84-13.67-4.37-13.5-8.64-27.03-12.96-40.55-.09-.28-.24-.53-.77-.78-.47,3.63-.93,7.27-1.42,10.9-1.56,11.51-3.15,23.02-4.71,34.53-.19,1.43-.31,2.87-.51,4.3-.3,2.11-1.62,3.41-3.53,3.54-2.01.14-3.79-1-4.1-3.09-.26-1.76-.11-3.62.12-5.41,1.94-15.2,3.89-30.39,5.95-45.58.54-3.98,1.43-7.91,2.25-11.84.37-1.75,1.14-3.32,2.92-4.17,2.32-1.1,5.01-.66,6.23,1.77,2.01,4.02,3.77,8.21,5.17,12.48,3.66,11.16,7.07,22.4,10.59,33.6.2.63.47,1.23.71,1.85.12-.04.23-.08.35-.13Z"/>
        <path class="cls-3" d="M993.21,81.66c2.22-1.86,4.19-3.44,6.09-5.1,1.58-1.38,3.83-1.64,5.37-.52,1.67,1.22,2.11,3.42,1.05,5.4-.27.49-.57.99-.97,1.38-2.84,2.79-5.87,5.36-9.7,6.66-1.41.48-1.76,1.21-1.72,2.61.29,10.51-.03,20.99-2.11,31.34-.9,4.45-2.21,8.78-4.81,12.59-3.54,5.18-8.4,5.61-12.81,1.14-2.41-2.45-3.95-5.43-4.55-8.74-.9-4.93-1.99-9.92-2.08-14.89-.27-14.76-.21-29.53-.01-44.3.07-5.53,3.41-9.72,7.74-12.64,5.24-3.54,12.47-.62,15.06,5.89,1.17,2.93,1.65,6.17,2.2,9.31.47,2.71.59,5.49.87,8.24.04.35.16.69.4,1.65ZM979.02,131.23c.27-.03.55-.06.82-.1.66-1.47,1.51-2.88,1.95-4.42,3.32-11.67,3.57-23.63,3.09-35.63-.02-.42-.31-1.03-.64-1.19-3.02-1.44-6.09-2.81-9.19-4.22-.03.24-.11.65-.11,1.06.03,7.84-.15,15.69.18,23.52.22,5.24,1.05,10.47,1.87,15.66.29,1.83,1.34,3.55,2.04,5.31ZM984.65,81.1c-.42-3.7-.7-7.13-1.23-10.51-.29-1.83-.78-3.7-1.57-5.36-1.05-2.2-3.1-2.21-4.29-.11-.64,1.12-1.17,2.38-1.41,3.64-1.02,5.52,1.89,9.43,8.5,12.34Z"/>
        <path class="cls-3" d="M738.01,102.19c-.09,7.52-1.58,14.75-3.99,21.81-1.3,3.81-3.45,7.12-6.4,9.86-4.71,4.37-10.02,4.67-15.22.86-2.8-2.05-4.76-4.79-6.29-7.87-3.05-6.13-4.42-12.71-4.7-19.46-.6-14.46.58-28.77,5.17-42.59.99-2.99,2.63-5.87,4.46-8.44,3.73-5.23,10.59-6.4,15.88-2.66,2.51,1.78,4.69,4.14,6.68,6.52,1.67,2.01,1.16,4.55-.67,5.82-1.85,1.29-4.04.74-5.76-1.32-1-1.2-2.06-2.38-3.25-3.39-2.93-2.48-5.27-2.03-7.28,1.26-2.44,3.99-3.56,8.43-4.44,12.94-2.14,10.89-3.16,21.87-2.32,32.97.41,5.44,1.44,10.74,4.2,15.51.92,1.59,2.28,2.97,3.64,4.23,1.29,1.2,2.72.93,4.05-.24,2.97-2.61,4.41-6.07,5.43-9.73,1.77-6.33,2.63-12.78,2.35-19.37-.06-1.44-.58-1.88-1.91-1.76-1.87.17-3.76.22-5.63.42-2.12.22-3.91-.83-4.57-2.81-.62-1.85.11-3.83,2-4.76,1.04-.51,2.25-.85,3.41-.92,2.5-.16,5.03-.19,7.53-.1,3.71.13,6.21,2.12,6.92,5.76.48,2.45.5,4.98.73,7.48Z"/>
        <path class="cls-3" d="M885.24,113.15c-4.1.91-7.95,1.72-11.77,2.65-.4.1-.82.91-.9,1.44-.98,6.71-1.95,13.42-2.83,20.15-.37,2.88-1.93,4.58-4.37,4.4-2.38-.18-3.92-2.14-3.59-5.04.71-6.3,1.45-12.6,2.39-18.87,2.17-14.4,4.44-28.79,6.75-43.18.38-2.35,1.09-4.65,1.76-6.93.33-1.14.81-2.26,1.4-3.28,2.34-4.1,7.13-4.48,9.62-.49,1.67,2.67,3.04,5.73,3.68,8.8,1.68,7.98,3.07,16.03,4.23,24.1,1.75,12.18,3.21,24.41,4.79,36.62.13,1,.26,1.99.34,2.99.19,2.5-1.26,4.51-3.48,4.86-2.27.36-4.26-1-4.68-3.6-.72-4.4-1.2-8.84-1.79-13.25-.49-3.65-1-7.31-1.56-11.34ZM879.65,75.44c-.22,0-.43,0-.65,0-1.68,10.49-3.37,20.98-5.11,31.85,3.69-.79,6.95-1.49,10.39-2.23-1.23-10.05-2.07-19.97-4.63-29.62Z"/>
        <path class="cls-3" d="M959.89,82.32c-.22,12.78-2.82,23.69-7.62,33.99-3.18,6.82-6.93,13.38-10.43,20.05-.26.5-.59.97-.91,1.43-1.16,1.71-2.45,3.4-4.8,3.02-2.45-.4-4.07-2.14-4.75-4.38-.66-2.2-.94-4.56-1.07-6.86-.69-12.04-1.49-24.08-1.82-36.13-.23-8.31,1.4-16.38,5.08-23.94.47-.96.98-1.9,1.53-2.81,5.77-9.63,16.15-6.41,20.11-.42,3.49,5.28,4.51,11.23,4.68,16.05ZM937.98,125.44c.17.06.34.11.51.17.83-1.66,1.62-3.33,2.49-4.97,5.88-11.1,10.07-22.7,10.5-35.42.16-4.72-.35-9.3-2.63-13.51-1.92-3.54-5.05-3.6-7-.2-2.58,4.54-4.11,9.45-4.55,14.63-1.13,13.12-.03,26.21.67,39.29Z"/>
        <path class="cls-3" d="M760.48,125.29c.7-1.72,1.52-3.39,2.06-5.15,2.57-8.32,3.95-16.87,4.67-25.52.83-9.95,1.53-19.91,2.29-29.86.22-2.88,1.84-4.54,4.3-4.49,2.33.05,4.14,1.81,3.95,4.35-1.17,15.71-1.43,31.52-4.59,47.01-1.08,5.32-2.82,10.53-4.59,15.68-.62,1.81-2.03,3.48-3.42,4.88-3.04,3.06-7.4,2.96-10.42-.12-3.05-3.1-4.82-7.03-5.6-11.14-1.21-6.39-2.28-12.89-2.49-19.38-.39-11.86-.13-23.73-.09-35.6,0-1.49.21-3.02.6-4.46.63-2.32,2.59-3.48,4.73-3.02,1.92.41,2.99,2.15,2.94,4.44-.34,15.76-.7,31.53.74,47.26.42,4.56,1.09,9.12,3.29,13.26.32.6.66,1.18.99,1.77.21.03.43.06.64.08Z"/>
        <path class="cls-3" d="M1019.5,113.97c-.59-10.78-3.03-21.37-7.15-31.6-2.05-5.07-3.9-10.22-3.79-15.83.08-4.2,1.7-7.51,5.61-9.26,3.89-1.75,7.47-.47,10.5,2.08,4.65,3.92,6.43,9.17,6.14,15.14-.1,2.11-1.59,3.6-3.53,3.8-1.91.19-3.74-1.2-4.19-3.33-.26-1.22-.28-2.49-.44-3.74-.32-2.36-1.46-4.28-3.32-5.71-.49-.37-1.3-.63-1.85-.49-.32.08-.68,1.11-.57,1.62.74,3.61,1.17,7.36,2.51,10.75,4.15,10.53,7.18,21.31,8.21,32.59.74,8.2-.36,16.09-5.01,23.11-2.51,3.79-6.03,6.07-10.76,5.71-2.93-.22-5.11-1.91-6.86-4.2-2.82-3.68-3.5-8.01-3.67-12.45-.1-2.63-.15-5.29.12-7.89.31-2.96,2.3-4.51,4.78-4.18,2.42.32,3.46,2.42,3.41,5.4-.06,3.68.23,7.39.64,11.05.17,1.56.71,3.57,2.56,3.81,1.91.25,2.84-1.58,3.66-3.06,2.24-4.07,2.9-8.52,3.04-13.33Z"/>
        <path class="cls-3" d="M898.36,67.52c0-1.82-.16-3.65.04-5.45.27-2.48,1.99-3.96,4.09-3.83,2.09.13,3.64,1.79,3.79,4.22.33,5.33.49,10.67.91,15.99,1.33,16.65,2.76,33.3,4.11,49.95.13,1.64.77,2.35,2.46,2.2,1.5-.13,3.01-.08,4.52-.07,2.62.03,4.41,1.53,4.59,3.81.18,2.23-1.39,4.28-3.97,4.4-3.23.15-6.55.14-9.72-.43-3.46-.63-5.2-3.41-5.72-6.75-.65-4.22-1.21-8.46-1.54-12.72-1.33-17.1-2.55-34.2-3.8-51.3.08,0,.16-.01.24-.02Z"/>
        <path class="cls-3" d="M800.99,79.56c-.75,17.2-1.39,32.83-2.19,48.45-.09,1.85-.8,3.8-1.7,5.44-.92,1.67-3.02,2.03-4.67,1.32-1.55-.67-2.47-2.37-2.36-4.14.49-7.83,1.08-15.65,1.39-23.49.57-14.37.95-28.75,1.43-43.12.03-.81.14-1.63.34-2.42.57-2.21,2.38-3.45,4.47-3.15,1.93.28,3.29,2.04,3.29,4.21,0,6.15,0,12.31,0,16.89Z"/>
      </g>
      <path class="cls-2" d="M40.33,55.46c-.1-.85-.63-2.09-3.46-5.23-.39-.43-.82-.89-1.28-1.38,1.38-.05,2.65-.11,3.69-.2,3.91-.31,4.56-.87,4.84-1.41.28-.53.2-1.03-.47-1.38-.67-.35-1.92-.56-5.84-.74-.82-.04-1.76-.07-2.77-.1.76-.77,1.46-1.49,2.06-2.13,2.68-2.87,3.27-4.05,3.33-4.8.06-.75-.41-1.07-1.27-.97-.85.1-2.09.63-5.23,3.46-.39.35-.81.74-1.25,1.15-.05-1.24-.11-2.39-.18-3.34-.31-3.91-.87-4.56-1.41-4.84-.53-.28-1.03-.2-1.38.47-.35.67-.56,1.92-.74,5.84-.03.7-.06,1.48-.09,2.31-1.09-1.02-2.1-1.94-2.95-2.66-2.99-2.55-3.84-2.61-4.42-2.43s-.87.59-.65,1.31c.22.72.96,1.75,3.61,4.65.51.55,1.08,1.18,1.7,1.84-1.03,0-1.98.02-2.82.05-3.92.14-5.17.55-5.75,1.04-.57.49-.47,1.05.21,1.58.68.53,1.93,1.03,6.14,1.25.5.03,1.04.05,1.62.07-.9.97-1.72,1.88-2.37,2.64-2.55,2.99-2.61,3.84-2.43,4.42.18.57.59.87,1.31.65.72-.22,1.75-.96,4.65-3.61.59-.54,1.27-1.17,1.99-1.84,0,1.16.02,2.24.05,3.17.14,3.92.55,5.17,1.04,5.75.49.57,1.05.47,1.58-.21.53-.68,1.03-1.93,1.25-6.14.03-.63.06-1.32.08-2.06.65.64,1.27,1.24,1.83,1.76,2.87,2.68,4.05,3.27,4.8,3.33.75.06,1.08-.41.97-1.27Z"/>
      <path class="cls-5" d="M1042.71,26.28l.22,2.09c.51,4.87,4.36,8.71,9.23,9.22l2.09.22-2.09.22c-4.87.51-8.71,4.36-9.23,9.22l-.22,2.09-.22-2.09c-.51-4.87-4.36-8.71-9.23-9.22l-2.09-.22,2.09-.22c4.87-.51,8.71-4.36,9.23-9.22l.22-2.09Z"/>
    </g>
  </g>
</svg>