<?xml version="1.0" encoding="UTF-8"?>
<svg id="Capa_2" data-name="Capa 2" xmlns="http://www.w3.org/2000/svg" xmlns:xlink="http://www.w3.org/1999/xlink" viewBox="0 0 793.95 301.88">
  <defs>
    <style>
      .cls-1 {
        fill: #013e7c;
      }

      .cls-2 {
        fill: url(#_Безымянный_градиент_10-2);
      }

      .cls-2, .cls-3 {
        fill-rule: evenodd;
      }

      .cls-4 {
        fill: #fff;
      }

      .cls-5 {
        fill: url(#_Безымянный_градиент_10-5);
      }

      .cls-6 {
        fill: url(#_Безымянный_градиент_10-4);
      }

      .cls-7 {
        fill: url(#_Безымянный_градиент_10-3);
      }

      .cls-3 {
        fill: url(#_Безымянный_градиент_10);
      }
    </style>
    <linearGradient id="_Безымянный_градиент_10" data-name="Безымянный градиент 10" x1="25.47" y1="147.2" x2="52.49" y2="147.2" gradientUnits="userSpaceOnUse">
      <stop offset="0" stop-color="#905116"/>
      <stop offset=".12" stop-color="#a77332"/>
      <stop offset=".39" stop-color="#e2c87c"/>
      <stop offset=".51" stop-color="#fff29f"/>
      <stop offset=".71" stop-color="#e0b864"/>
      <stop offset="1" stop-color="#b86914"/>
    </linearGradient>
    <linearGradient id="_Безымянный_градиент_10-2" data-name="Безымянный градиент 10" x1="730.14" y1="211.43" x2="757.16" y2="211.43" xlink:href="#_Безымянный_градиент_10"/>
    <linearGradient id="_Безымянный_градиент_10-3" data-name="Безымянный градиент 10" x1="720.21" y1="158.12" x2="743.65" y2="158.12" xlink:href="#_Безымянный_градиент_10"/>
    <linearGradient id="_Безымянный_градиент_10-4" data-name="Безымянный градиент 10" x1="58.21" y1="41.85" x2="77.46" y2="41.85" xlink:href="#_Безымянный_градиент_10"/>
    <linearGradient id="_Безымянный_градиент_10-5" data-name="Безымянный градиент 10" x1="505.17" y1="32.82" x2="541.06" y2="32.82" xlink:href="#_Безымянный_градиент_10"/>
  </defs>
  <g id="Capa_1-2" data-name="Capa 1">
    <g>
      <rect class="cls-1" width="793.95" height="301.88" rx="23.35" ry="23.35"/>
      <g>
        <path class="cls-4" d="M370.5,89.77c0-1.63.03-3.25,0-4.88-.25-13.78-.52-27.57-.76-41.35-.03-1.85.08-3.7.14-5.55.1-3,1.56-5.18,4.5-5.6,4.09-.59,8.25-.89,12.38-.92,2.89-.02,4.77,2.15,4.74,5.22-.08,6.96-.29,13.91-.59,20.86-.52,12.05-1.35,24.08-1.66,36.13-.33,13.15-.2,26.3-.28,39.46,0,.45-.11.89-.1,1.33.15,5.89-4.51,8.42-9.49,8.92-.82.08-1.66.04-2.49.02-5.15-.15-6.8-1.44-8.69-6.2-5.06-12.76-10.2-25.48-15.32-38.21-.23-.56-.54-1.09-1.2-1.6-.14,1.27-.34,2.55-.4,3.82-.54,11.66-1.04,23.33-1.57,34.99-.25,5.31-2.4,7.39-7.7,7.29-2.8-.05-5.61-.25-8.4-.57-2.94-.34-4.38-1.95-4.23-4.89.61-12.04,1.26-24.08,2.02-36.12.46-7.26.98-14.52,1.74-21.75,1.29-12.31,2.74-24.6,4.21-36.89.44-3.7,2.46-5.6,5.73-5.87,2.52-.21,4.52.9,5.55,3.23,4.82,10.91,9.64,21.82,14.41,32.75,2.22,5.09,4.33,10.23,6.49,15.34.17.39.4.75.61,1.13l.36-.1Z"/>
        <path class="cls-4" d="M128.03,93.86c.26-2.45.5-4.9.79-7.34,1.67-14.13,2.78-28.33,5.94-42.25.41-1.8.9-3.6,1.57-5.32,1.17-3.01,3.52-4.63,6.67-5.05,3.01-.4,5.96-.22,8.87.81,3.45,1.21,4.99,3.43,4.56,7.18-.61,5.39-1.36,10.77-1.94,16.16-1.67,15.48-3.28,30.96-4.91,46.45-.89,8.52-2.03,17-4.61,25.2-.78,2.48-1.8,4.94-3.1,7.18-2.3,3.96-6.1,5.13-10.4,3.52-3.29-1.23-5.82-3.48-7.7-6.38-4.67-7.19-8.59-14.79-11.71-22.78-1.13-2.88-2.24-5.78-3.36-8.66-.16,0-.33.02-.49.03-.37,2.22-.68,4.44-1.11,6.65-1.66,8.58-3.23,17.19-5.09,25.73-1.18,5.41-4.42,6.92-9.57,4.88-1.66-.66-3.32-1.35-4.88-2.21-4.04-2.23-5.31-4.8-4.55-9.35,1.07-6.42,2.16-12.84,3.41-19.23,2.46-12.58,4.89-25.17,7.64-37.69,1.31-5.97,3.21-11.83,5.08-17.66.77-2.4,1.86-4.8,3.32-6.85,3.43-4.82,9.38-4.8,12.28.32,2.2,3.89,3.77,8.26,4.89,12.6,2.73,10.63,5.04,21.36,7.52,32.05.16.68.35,1.34.53,2.02.12,0,.24,0,.36.01Z"/>
        <path class="cls-4" d="M417.67,115.19c-1.42,7.96-2.77,15.61-4.15,23.26-.21,1.19-.47,2.39-.89,3.52-1.29,3.41-3.54,4.78-7.16,4.38-2.79-.3-5.59-.55-8.35-1.05-4.57-.83-5.45-2.13-4.74-6.67,1.74-11.22,3.4-22.46,5.29-33.65,3.13-18.51,6.87-36.88,12.64-54.79,1.25-3.88,2.55-7.75,3.98-11.57.5-1.35,1.3-2.66,2.24-3.76,3.76-4.39,8.76-4.56,12.19.07,2.62,3.55,4.79,7.56,6.48,11.65,5.45,13.18,8.98,26.99,12.55,40.76,4.47,17.22,8.72,34.51,13.05,51.77.22.86.31,1.76.36,2.65.21,3.86-1.6,6.69-5.33,7.57-3.27.77-6.65,1.17-10,1.48-2.62.25-4.15-1.44-5.37-3.6-2.43-4.31-3.32-9.08-4.4-13.8-1.22-5.28-2.47-10.56-3.63-15.86-.24-1.08-.65-1.43-1.74-1.49-4.2-.22-8.38-.56-13-.88ZM421.06,100.97c2.66.16,4.99.31,7.58.47-1.3-5.51-2.53-10.77-3.77-16.03-.11,0-.23,0-.34.01-1.13,5.08-2.27,10.16-3.47,15.55Z"/>
        <path class="cls-4" d="M284.61,84.01c-7.29-3.55-10.64-9.32-11.3-16.76-.53-5.99,1.06-11.46,4.08-16.64,7.43-12.73,18.95-18.22,33.16-19.03,2.35-.13,4.72-.11,7.08.02,3.61.2,5.47,2.19,5.48,5.81.01,3-.07,6-.21,8.99-.19,3.95-2.38,5.8-6.29,6.33-4.27.58-8.54,1.44-12.69,2.6-3.78,1.06-6.7,3.65-9.18,6.65-.72.87-1.28,1.93-1.66,2.99-.91,2.58-.08,4.62,2.48,5.6,1.76.67,3.67,1.14,5.55,1.26,3.11.21,6.25.03,9.38.1,4.02.09,5.82,1.94,5.93,5.9.07,2.42.25,4.85.24,7.27,0,4.23-1.57,6.15-5.62,7.29-3.62,1.01-7.29,1.92-10.81,3.23-3.51,1.31-6.65,3.43-8.75,6.59-1.2,1.8-2.18,3.96-2.5,6.08-.62,4.1,2.23,6.58,5.36,8.27,2.47,1.34,5.32,2.23,8.11,2.69,3.97.65,7.94.24,11.93-.8,5.3-1.38,9.64.59,9.46,6.7-.1,3.35-.73,6.71-1.45,9.99-.79,3.61-3.38,5.68-6.77,6.95-8.46,3.17-17.12,3.55-26.02,2.42-10.46-1.33-16.52-7.86-20.75-16.72-6.28-13.13-1.94-27.08,7.13-36.96,2-2.18,4.61-3.79,6.95-5.66.43-.34.91-.63,1.69-1.16Z"/>
        <path class="cls-4" d="M215.72,82.94c.51,11.62-1.84,23.48-6.53,34.93-2.99,7.31-7.48,13.48-13.37,18.67-10.74,9.47-24.68,6.36-32.65-3.1-5.48-6.5-7.64-14.25-7.79-22.55-.28-15.51,1.84-30.68,7.2-45.31,1.86-5.08,4.23-9.9,7.74-14.02,6.3-7.39,13.97-12.04,24.12-11.35,7.17.48,12.34,4.05,15.31,10.46,3.76,8.14,5.74,16.76,5.95,25.76.04,1.91,0,3.83,0,6.51ZM196.52,80.23c0-2.42.31-4.9-.08-7.26-.46-2.79-1.36-5.54-2.4-8.18-.69-1.76-2.41-2.16-4.23-1.65-2.4.67-4.47,1.87-6.01,3.87-7.75,10.11-11.24,21.68-11.23,34.27,0,3.22.86,6.64,2.13,9.62,2.75,6.43,10.42,7.1,14.42,1.37,1.63-2.33,3.02-4.92,3.99-7.59,2.88-7.88,3.84-16.1,3.4-24.46Z"/>
        <path class="cls-4" d="M241.57,92.36c1-3.94,1.92-7.91,3.01-11.83,3.09-11.13,6.24-22.23,9.38-33.34.68-2.39,1.42-4.77,2.2-7.13,1.18-3.56,3.19-5.23,6.9-5.24,2.39,0,4.85.28,7.17.88,3.33.86,5.13,3.12,4.71,6.49-.53,4.28-1.39,8.57-2.64,12.69-5.14,16.98-10.41,33.92-15.77,50.83-2.62,8.27-5.42,16.49-8.41,24.64-1.11,3.02-2.81,5.87-4.58,8.57-1.67,2.54-4.08,4.44-7.38,3.86-3.54-.62-6.64-2.16-7.53-6.11-1.33-5.91-3-11.79-3.7-17.78-1.99-16.86-3.58-33.76-5.27-50.65-.82-8.19-1.54-16.39-2.24-24.6-.14-1.58-.1-3.19.02-4.78.16-2.1,1.28-3.65,3.32-4.26,3.3-.98,6.63-1.91,9.98-2.67,3.29-.75,5.99,1.22,6.26,4.74.46,5.85.55,11.73.99,17.59.93,12.41,1.98,24.81,2.98,37.21.02.29.08.58.13.86l.48.03Z"/>
      </g>
      <g>
        <path class="cls-4" d="M164.48,258.61c-25.36,0-50.72-.01-76.08.01-3.64,0-7.28.14-10.91.32-2.26.11-4.15-.33-5.42-2.42-1.48-2.43-2.12-5.01-.18-7.31,2.24-2.67,4.66-5.28,7.37-7.45,5.88-4.7,12.08-9.01,18-13.66,6.2-4.87,5.73-3.91,1.16-9.31-8.18-9.64-16.68-19-25.03-28.5-1.66-1.89-3.42-3.82-2.13-6.64,1.26-2.76,3.77-3.19,6.43-3.22,13.03-.16,26.05-.35,39.08-.46,8.75-.07,17.5,0,26.24-.05,21.52-.11,43.05-.2,64.57-.38,10.86-.09,21.71-.4,32.56-.55,2.87-.04,5.79-.12,8.6.34,2.05.34,4.17,1.24,5.88,2.43,2.2,1.54,1.8,4.55-.36,6.44-9.67,8.45-18.77,17.5-27.34,27.06-1,1.12-.69,1.88.14,2.77,5.75,6.06,11.47,12.16,17.27,18.18,3.37,3.49,6.89,6.84,10.27,10.32.87.9,1.6,2.01,2.12,3.15,1.36,2.99.08,5.73-2.98,6.95-2.35.93-4.73,1.27-7.27,1.28-22.67.09-45.35.28-68.02.43-4.66.03-9.32,0-13.98,0v.26ZM120.17,220.04c.22,0,.45,0,.67,0,0,7.4-.06,14.8.02,22.2.05,4.69,4.43,7.65,8.64,5.5,3.71-1.89,7.39-4.14,10.46-6.93,7.59-6.9,11.61-15.72,12.25-25.98.34-5.42-.18-10.79-2.88-15.6-4.45-7.91-12.84-11.19-22.61-9.13-4.91,1.03-6.6,3.24-6.57,8.32.04,7.21.01,14.42.01,21.63ZM169.14,219.36c-3.74,3-6.11,6.78-7.37,11.26-1.97,7.01.71,13.09,6.81,16.32,7.66,4.05,15.21,2.75,22.74-.16,2.24-.86,3.13-3.28,2.39-5.4-.74-2.1-2.92-3.35-5.21-2.85-1.87.41-3.71.94-5.55,1.46-3.68,1.03-7.24.78-10.5-1.27-.88-.55-1.83-1.56-2.04-2.52-.85-3.95,1.91-8.75,5.72-10.19,1.78-.67,3.66-1.1,5.49-1.67,2.42-.76,4.11-2.96,4.04-5.24-.07-2.26-1.53-3.82-4.23-4.5-.87-.22-1.75-.38-2.61-.59-6.67-1.67-7.42-5.51-3.4-10.82.27-.35.59-.67.91-.98,3.12-3.02,6.68-5.05,11.16-5.26,2.17-.1,3.71-1.74,3.9-3.79.18-2.02-1.07-3.91-3.21-4.37-1.34-.29-2.82-.36-4.16-.12-6.85,1.23-12.37,4.76-16.46,10.31-2.71,3.68-4.27,7.85-3.36,12.57.62,3.21,2.43,5.69,4.96,7.81Z"/>
        <path class="cls-4" d="M129.79,237.47c-.14-2.61-.31-4.76-.35-6.91-.19-10.02-.3-20.04-.54-30.06-.04-1.74.54-2.14,2.15-2.18,7.4-.19,11.29,3.23,12.03,11.06,1,10.54-2.7,19.27-10.6,26.25-.7.62-1.55,1.07-2.69,1.84Z"/>
      </g>
      <g>
        <path class="cls-4" d="M336.87,209.95c1.68-1.45,3.04-2.42,4.13-3.62,2.49-2.74,4.75-5.68,7.3-8.36,1.03-1.08,2.47-2.16,3.88-2.41,2.56-.46,4.65,2.32,4.05,4.94-.11.49-.28,1.02-.57,1.41-4.61,6.22-9.26,12.44-16.36,16.1-1.27.65-1.53,1.37-1.43,2.68.84,11.84,1.61,23.69,2.4,35.54.04.57.08,1.15.08,1.72.01,2.4-1.16,4.02-3.16,4.38-2.1.38-4.18-.66-4.75-2.92-.59-2.32-.76-4.78-.93-7.18-.69-9.81-1.32-19.62-1.97-29.42-.02-.3-.11-.6-.2-1.03-6.16,1.61-12.36,2.25-18.64,2.16-.57,0-1.15,0-1.72-.04-2.88-.18-2.92-.19-3.81,2.67-2.68,8.66-5.34,17.32-7.99,25.99-.24.79-.31,1.63-.5,2.43-.51,2.13-2.12,3.42-4.1,3.32-1.88-.1-3.51-1.45-3.68-3.52-.12-1.54.08-3.21.54-4.69,4.98-16.03,9.92-32.07,15.12-48.03,2.67-8.18,5.79-16.22,8.84-24.27.67-1.76,1.74-3.43,2.92-4.92,3.52-4.45,8.89-4.55,12.11.09,1.85,2.66,3.36,5.84,4,8.99,1.63,8.06,2.68,16.23,3.96,24.36.16.99.26,2,.47,3.62ZM308.78,215.55c6.74.27,12.93-.16,18.92-2.2.39-.13.77-1.13.7-1.66-1.28-9.21-2.59-18.42-4.02-27.61-.26-1.68-1.12-3.27-1.71-4.9-.21,0-.43.01-.64.02-5.7,11.55-8.76,24.05-13.25,36.35Z"/>
        <path class="cls-4" d="M506.6,241.12c.27-6.7.56-13.39.79-20.09.38-10.59.71-21.18,1.08-31.77.08-2.42,1.62-4.11,3.81-4.26,2.06-.15,3.97,1.26,4.3,3.55.26,1.81.13,3.68.08,5.52-.28,10.28-.54,20.55-.91,30.83-.43,12.12-.96,24.24-1.43,36.36-.09,2.3-.95,4.08-3.12,5.07-2.51,1.13-4.98.22-6.06-2.58-1.77-4.58-3.41-9.22-4.92-13.9-4.44-13.72-8.78-27.47-13.17-41.21-.09-.28-.24-.54-.78-.8-.48,3.69-.95,7.38-1.45,11.07-1.59,11.7-3.2,23.39-4.79,35.09-.2,1.45-.31,2.92-.52,4.37-.3,2.14-1.65,3.47-3.59,3.6-2.04.14-3.85-1.01-4.17-3.14-.26-1.79-.11-3.68.12-5.5,1.97-15.45,3.95-30.89,6.04-46.32.55-4.04,1.45-8.04,2.29-12.03.37-1.78,1.16-3.38,2.97-4.23,2.36-1.12,5.1-.67,6.33,1.8,2.04,4.09,3.83,8.34,5.26,12.68,3.72,11.34,7.19,22.76,10.76,34.15.2.64.48,1.25.73,1.88.12-.04.24-.08.36-.13Z"/>
        <path class="cls-4" d="M656.96,207.35c2.26-1.89,4.26-3.5,6.19-5.19,1.61-1.4,3.89-1.67,5.45-.53,1.7,1.24,2.15,3.47,1.07,5.49-.27.5-.58,1.01-.98,1.41-2.88,2.84-5.96,5.45-9.86,6.77-1.43.49-1.79,1.23-1.75,2.65.3,10.68-.03,21.33-2.15,31.85-.91,4.53-2.24,8.92-4.89,12.8-3.6,5.27-8.54,5.71-13.01,1.16-2.45-2.49-4.01-5.52-4.63-8.89-.92-5.01-2.02-10.08-2.11-15.14-.27-15-.22-30.01-.01-45.02.08-5.62,3.47-9.88,7.86-12.85,5.32-3.6,12.67-.63,15.3,5.99,1.18,2.98,1.68,6.27,2.24,9.46.48,2.76.59,5.58.89,8.37.04.36.17.7.4,1.68ZM642.53,257.73c.28-.03.56-.07.83-.1.67-1.49,1.53-2.93,1.98-4.49,3.38-11.86,3.62-24.01,3.14-36.21-.02-.42-.31-1.05-.66-1.21-3.07-1.47-6.19-2.85-9.34-4.29-.03.24-.11.66-.11,1.08.03,7.97-.16,15.95.18,23.91.23,5.32,1.07,10.64,1.9,15.91.29,1.86,1.36,3.6,2.07,5.4ZM648.25,206.78c-.43-3.76-.71-7.24-1.25-10.68-.29-1.86-.79-3.76-1.6-5.45-1.07-2.24-3.15-2.24-4.36-.11-.65,1.14-1.19,2.42-1.43,3.7-1.04,5.61,1.92,9.58,8.63,12.54Z"/>
        <path class="cls-4" d="M397.59,228.22c-.09,7.64-1.61,14.99-4.05,22.17-1.32,3.88-3.5,7.23-6.51,10.02-4.79,4.44-10.18,4.74-15.47.87-2.85-2.09-4.84-4.87-6.4-8-3.1-6.23-4.5-12.92-4.78-19.78-.61-14.7.58-29.24,5.25-43.29,1.01-3.03,2.67-5.96,4.54-8.58,3.79-5.31,10.77-6.5,16.14-2.7,2.55,1.81,4.77,4.2,6.79,6.63,1.7,2.04,1.18,4.62-.68,5.91-1.88,1.31-4.11.76-5.85-1.34-1.02-1.22-2.09-2.42-3.3-3.44-2.98-2.53-5.35-2.07-7.4,1.28-2.48,4.05-3.61,8.57-4.52,13.15-2.18,11.07-3.21,22.23-2.36,33.51.42,5.52,1.47,10.91,4.27,15.76.93,1.61,2.32,3.02,3.69,4.3,1.31,1.22,2.76.95,4.12-.24,3.01-2.65,4.48-6.17,5.52-9.89,1.8-6.43,2.67-12.98,2.38-19.69-.06-1.47-.59-1.91-1.94-1.79-1.9.17-3.82.22-5.72.42-2.16.22-3.97-.84-4.64-2.85-.63-1.88.12-3.89,2.03-4.84,1.06-.52,2.29-.86,3.47-.94,2.54-.16,5.11-.2,7.66-.1,3.77.13,6.31,2.16,7.03,5.85.49,2.49.51,5.06.74,7.6Z"/>
        <path class="cls-4" d="M547.22,239.35c-4.17.92-8.08,1.75-11.96,2.7-.41.1-.83.93-.91,1.47-1,6.82-1.98,13.64-2.87,20.48-.38,2.93-1.96,4.65-4.44,4.47-2.42-.18-3.98-2.17-3.65-5.13.72-6.4,1.47-12.81,2.43-19.18,2.21-14.64,4.51-29.26,6.86-43.88.38-2.38,1.11-4.72,1.79-7.05.34-1.15.83-2.29,1.42-3.34,2.38-4.17,7.24-4.55,9.77-.5,1.69,2.71,3.09,5.82,3.74,8.94,1.7,8.11,3.12,16.29,4.3,24.49,1.78,12.38,3.26,24.81,4.87,37.21.13,1.01.27,2.03.34,3.04.19,2.54-1.28,4.58-3.54,4.94-2.31.37-4.33-1.01-4.76-3.66-.73-4.47-1.21-8.98-1.82-13.47-.5-3.71-1.02-7.42-1.58-11.53ZM541.54,201.03c-.22,0-.44,0-.66,0-1.71,10.66-3.42,21.32-5.2,32.37,3.75-.81,7.06-1.52,10.56-2.27-1.25-10.22-2.1-20.3-4.7-30.1Z"/>
        <path class="cls-4" d="M623.09,208.03c-.22,12.99-2.86,24.07-7.74,34.54-3.23,6.93-7.04,13.6-10.6,20.38-.27.51-.6.98-.92,1.46-1.18,1.74-2.49,3.46-4.88,3.07-2.49-.41-4.14-2.18-4.82-4.45-.67-2.23-.96-4.63-1.09-6.97-.7-12.24-1.51-24.47-1.85-36.72-.23-8.44,1.42-16.65,5.16-24.33.47-.97,1-1.93,1.55-2.86,5.86-9.79,16.41-6.51,20.43-.42,3.54,5.37,4.59,11.42,4.76,16.31ZM600.82,251.84c.17.06.35.11.52.17.84-1.68,1.65-3.39,2.53-5.05,5.98-11.28,10.23-23.07,10.67-36,.16-4.8-.35-9.45-2.67-13.73-1.95-3.6-5.14-3.66-7.11-.2-2.63,4.61-4.17,9.61-4.63,14.87-1.15,13.33-.03,26.63.68,39.93Z"/>
        <path class="cls-4" d="M420.43,251.69c.71-1.74,1.54-3.45,2.1-5.24,2.61-8.45,4.01-17.14,4.74-25.93.84-10.11,1.55-20.23,2.33-30.34.22-2.92,1.87-4.62,4.37-4.57,2.37.05,4.21,1.84,4.02,4.42-1.18,15.96-1.45,32.03-4.66,47.78-1.1,5.41-2.87,10.7-4.67,15.94-.63,1.84-2.06,3.54-3.47,4.96-3.09,3.11-7.52,3.01-10.59-.12-3.1-3.15-4.9-7.14-5.69-11.32-1.23-6.5-2.32-13.1-2.53-19.69-.4-12.05-.14-24.12-.09-36.18,0-1.52.21-3.07.61-4.54.64-2.36,2.63-3.53,4.8-3.06,1.95.42,3.04,2.18,2.99,4.51-.35,16.02-.71,32.04.76,48.03.42,4.63,1.11,9.27,3.35,13.48.32.61.67,1.2,1,1.8.22.03.43.06.65.09Z"/>
        <path class="cls-4" d="M683.67,240.19c-.6-10.95-3.07-21.72-7.27-32.11-2.08-5.16-3.96-10.38-3.85-16.09.08-4.27,1.73-7.63,5.7-9.41,3.96-1.78,7.59-.47,10.67,2.12,4.73,3.98,6.53,9.32,6.24,15.39-.1,2.14-1.62,3.66-3.59,3.86-1.94.19-3.8-1.22-4.26-3.38-.26-1.24-.28-2.54-.45-3.8-.32-2.39-1.48-4.35-3.38-5.8-.49-.38-1.32-.64-1.88-.5-.33.08-.69,1.12-.58,1.64.76,3.67,1.19,7.48,2.55,10.92,4.22,10.7,7.3,21.65,8.34,33.12.76,8.33-.36,16.35-5.09,23.49-2.55,3.85-6.13,6.17-10.94,5.8-2.98-.23-5.19-1.94-6.98-4.27-2.87-3.74-3.56-8.14-3.73-12.65-.1-2.67-.16-5.37.13-8.02.32-3.01,2.34-4.58,4.86-4.25,2.46.33,3.52,2.46,3.47,5.49-.06,3.74.24,7.51.65,11.23.18,1.58.73,3.63,2.6,3.87,1.94.25,2.89-1.61,3.72-3.11,2.27-4.14,2.94-8.66,3.09-13.55Z"/>
        <path class="cls-4" d="M560.56,192.98c0-1.85-.16-3.71.04-5.54.27-2.52,2.02-4.02,4.15-3.89,2.12.13,3.7,1.82,3.85,4.28.33,5.42.5,10.85.93,16.25,1.35,16.92,2.8,33.84,4.18,50.76.14,1.66.78,2.39,2.5,2.24,1.52-.13,3.06-.09,4.6-.07,2.66.03,4.48,1.56,4.67,3.87.18,2.26-1.41,4.35-4.04,4.47-3.29.15-6.66.15-9.87-.44-3.52-.64-5.29-3.47-5.81-6.86-.66-4.29-1.23-8.6-1.57-12.92-1.35-17.38-2.59-34.76-3.87-52.14.08,0,.16-.01.24-.02Z"/>
        <path class="cls-4" d="M461.6,205.22c-.77,17.49-1.41,33.37-2.22,49.24-.1,1.88-.82,3.86-1.73,5.53-.93,1.7-3.07,2.06-4.74,1.34-1.57-.68-2.51-2.41-2.4-4.2.5-7.96,1.1-15.91,1.41-23.87.58-14.61.97-29.22,1.46-43.83.03-.82.14-1.66.34-2.46.58-2.25,2.42-3.51,4.54-3.2,1.96.29,3.35,2.07,3.35,4.28,0,6.25,0,12.51,0,17.17Z"/>
      </g>
      <path class="cls-3" d="M48.56,155.75c-.1-.85-.63-2.09-3.46-5.23-.39-.43-.82-.89-1.28-1.38,1.38-.05,2.65-.11,3.69-.2,3.91-.31,4.56-.87,4.84-1.41.28-.53.2-1.03-.47-1.38-.67-.35-1.92-.56-5.84-.74-.82-.04-1.76-.07-2.77-.1.76-.77,1.46-1.49,2.06-2.13,2.68-2.87,3.27-4.05,3.33-4.8.06-.75-.41-1.07-1.27-.97-.85.1-2.09.63-5.23,3.46-.39.35-.81.74-1.25,1.15-.05-1.24-.11-2.39-.18-3.34-.31-3.91-.87-4.56-1.41-4.84-.53-.28-1.03-.2-1.38.47-.35.67-.56,1.92-.74,5.84-.03.7-.06,1.48-.09,2.31-1.09-1.02-2.1-1.94-2.95-2.66-2.99-2.55-3.84-2.61-4.42-2.43s-.87.59-.65,1.31c.22.72.96,1.75,3.61,4.65.51.55,1.08,1.18,1.7,1.84-1.03,0-1.98.02-2.82.05-3.92.14-5.17.55-5.75,1.04-.57.49-.47,1.05.21,1.58.68.53,1.93,1.03,6.14,1.25.5.03,1.04.05,1.62.07-.9.97-1.72,1.88-2.37,2.64-2.55,2.99-2.61,3.84-2.43,4.42.18.57.59.87,1.31.65.72-.22,1.75-.96,4.65-3.61.59-.54,1.27-1.17,1.99-1.84,0,1.16.02,2.24.05,3.17.14,3.92.55,5.17,1.04,5.75.49.57,1.05.47,1.58-.21.53-.68,1.03-1.93,1.25-6.14.03-.63.06-1.32.08-2.06.65.64,1.27,1.24,1.83,1.76,2.87,2.68,4.05,3.27,4.8,3.33.75.06,1.08-.41.97-1.27Z"/>
      <path class="cls-2" d="M753.22,219.97c-.1-.85-.63-2.09-3.46-5.23-.39-.43-.82-.89-1.28-1.38,1.38-.05,2.65-.11,3.69-.2,3.91-.31,4.56-.87,4.84-1.41.28-.53.2-1.03-.47-1.38-.67-.35-1.92-.56-5.84-.74-.82-.04-1.76-.07-2.77-.1.76-.77,1.46-1.49,2.06-2.13,2.68-2.87,3.27-4.05,3.33-4.8.06-.75-.41-1.07-1.27-.97-.85.1-2.09.63-5.23,3.46-.39.35-.81.74-1.25,1.15-.05-1.24-.11-2.39-.18-3.34-.31-3.91-.87-4.56-1.41-4.84-.53-.28-1.03-.2-1.38.47-.35.67-.56,1.92-.74,5.84-.03.7-.06,1.48-.09,2.31-1.09-1.02-2.1-1.94-2.95-2.66-2.99-2.55-3.84-2.61-4.42-2.43s-.87.59-.65,1.31c.22.72.96,1.75,3.61,4.65.51.55,1.08,1.18,1.7,1.84-1.03,0-1.98.02-2.82.05-3.92.14-5.17.55-5.75,1.04-.57.49-.47,1.05.21,1.58.68.53,1.93,1.03,6.14,1.25.5.03,1.04.05,1.62.07-.9.97-1.72,1.88-2.37,2.64-2.55,2.99-2.61,3.84-2.43,4.42.18.57.59.87,1.31.65.72-.22,1.75-.96,4.65-3.61.59-.54,1.27-1.17,1.99-1.84,0,1.16.02,2.24.05,3.17.14,3.92.55,5.17,1.04,5.75.49.57,1.05.47,1.58-.21.53-.68,1.03-1.93,1.25-6.14.03-.63.06-1.32.08-2.06.65.64,1.27,1.24,1.83,1.76,2.87,2.68,4.05,3.27,4.8,3.33.75.06,1.08-.41.97-1.27Z"/>
      <path class="cls-7" d="M731.93,146.4l.22,2.12c.52,4.95,4.43,8.86,9.38,9.38l2.12.22-2.12.22c-4.95.52-8.86,4.43-9.38,9.38l-.22,2.12-.22-2.12c-.52-4.95-4.43-8.86-9.38-9.38l-2.12-.22,2.12-.22c4.95-.52,8.86-4.43,9.38-9.38l.22-2.12Z"/>
      <path class="cls-6" d="M67.84,32.22l-.18,1.74c-.43,4.06-3.64,7.28-7.7,7.7l-1.74.18,1.74.18c4.06.43,7.28,3.64,7.7,7.7l.18,1.74.18-1.74c.43-4.06,3.64-7.27,7.7-7.7l1.74-.18-1.74-.18c-4.06-.43-7.28-3.64-7.7-7.7l-.18-1.74Z"/>
      <g>
        <polygon class="cls-4" points="554.54 140.93 537.56 114.62 550.03 114.62 533.88 89.59 547.18 89.59 522.94 52.04 498.7 89.59 512 89.59 495.84 114.62 508.32 114.62 491.33 140.93 518.3 140.93 518.3 152.34 527.57 152.34 527.57 140.93 554.54 140.93"/>
        <polygon class="cls-5" points="523.11 15.75 527.35 28.79 541.06 28.79 529.97 36.85 534.21 49.89 523.11 41.83 512.02 49.89 516.26 36.85 505.17 28.79 518.88 28.79 523.11 15.75"/>
      </g>
    </g>
  </g>
</svg>