<?xml version="1.0" encoding="UTF-8"?>
<svg id="Capa_1" xmlns="http://www.w3.org/2000/svg" version="1.1" viewBox="0 0 309.4 132.6">
  <!-- Generator: Adobe Illustrator 30.0.0, SVG Export Plug-In . SVG Version: 2.1.1 Build 123)  -->
  <defs>
    <style>
      .st0 {
        fill: none;
        stroke: #0072c8;
        stroke-miterlimit: 10;
        stroke-width: 4px;
      }

      .st1, .st2, .st3 {
        isolation: isolate;
      }

      .st4 {
        fill: #aadbff;
      }

      .st5 {
        fill: #0072c8;
      }

      .st2 {
        fill: #ccc;
        opacity: .4;
      }

      .st3 {
        fill: #005589;
        opacity: .3;
      }
    </style>
  </defs>
  <g id="Capa_2">
    <g id="Capa_1-2">
      <path class="st2" d="M60.7,11.2h181.6c33.5,0,60.7,27.2,60.7,60.7h0c0,33.5-27.2,60.7-60.7,60.7H60.7C27.2,132.6,0,105.4,0,71.9h0C0,38.4,27.2,11.2,60.7,11.2Z"/>
      <path class="st4" d="M65,2h181.6c33.5,0,60.7,27.2,60.7,60.7h0c0,33.5-27.2,60.7-60.7,60.7H65c-33.5,0-60.7-27.2-60.7-60.7h0C4.2,29.2,31.4,2,65,2Z"/>
      <path class="st0" d="M65,2h181.6c33.5,0,60.7,27.2,60.7,60.7h0c0,33.5-27.2,60.7-60.7,60.7H65c-33.5,0-60.7-27.2-60.7-60.7h0C4.2,29.2,31.4,2,65,2Z"/>
      <path class="st3" d="M297.9,30.1s7.8,56.8-38.8,77.2c0,0-26.2,13.7-70.7,14.9l66.3,1.2,17.1-5.5,14.6-9.4,11.1-12.7,6.6-13.4,3.2-16.4-1-14.9-2.8-9.9-5.6-11.1Z"/>
    </g>
  </g>
  <g class="st1">
    <path class="st5" d="M69.3,40.4c2.7,0,4.9.5,6.8,1.3,1.9.9,2.8,2,2.8,3.4s-.2,1.1-.5,1.6c-.3.5-.8.7-1.3.7s-1.9-.5-3.8-1.4c-2-.9-3.8-1.4-5.4-1.4s-3.3.5-5,1.5-2.6,2.3-2.6,3.7,1,3.5,3.1,4.4c1.6.7,3.8,1.3,6.7,1.9,2.9.6,5.3,1.7,7.1,3.4s2.8,4.3,2.8,7.7c0,5.2-1.6,9.1-4.7,11.6-1.8,1.4-4.2,2.1-7.5,2.1s-6.4-.9-9.6-2.6c-2.1-1.1-3.1-2.2-3.1-3.3s.2-.9.5-1.3c.3-.5.8-.9,1.4-1.2.6-.3,1.2-.4,1.7-.2.5.2,1.3.6,2.5,1.2,1.1.6,2,1,2.5,1.2,1.7.7,3.3,1,4.8,1s3-.7,4.4-2.2c1.4-1.5,2.1-3.3,2.1-5.5s-1.4-4.9-4.3-6c-1.4-.6-3-1-4.7-1.3-3.6-.7-6.4-1.7-8.2-3.3-1.8-1.5-2.8-3.9-2.8-7s1.3-5.6,4-7.3c2.7-1.8,6.1-2.7,10.2-2.7Z"/>
    <path class="st5" d="M87.5,42.3c.7,0,1.4.3,2.1,1,.7.7,1,1.4,1,2.2s-.4,1.5-1.1,2.3c-.7.8-1.5,1.2-2.2,1.2s-1.5-.3-2.1-1c-.6-.7-1-1.5-1-2.5,0-2,1.1-3,3.2-3.2h.1ZM90.1,74.4v4.3c0,.8-.2,1.4-.9,1.9-.6.5-1.3.8-2,.8-1,0-1.6-.5-1.6-1.5-.5-13-.8-20.3-.8-21.7s0-3.1.2-5.1c0-.7.6-1.1,1.4-1.1,2.2,0,3.4.9,3.7,2.6.1.9.2,1.6.2,2.1l-.2,3.9v13.7Z"/>
    <path class="st5" d="M114.8,78.5c-1.5,1.7-3.3,2.6-5.6,2.6s-4.2-.7-5.8-2.1c-3.4-2.7-5.2-6.7-5.2-12.2s1.2-7.7,3.6-10.3c2.4-2.6,5.3-3.9,8.8-3.9s5.8,1.2,7.1,3.6c1.1,2.1,1.7,5.2,1.7,9.4v5c-.1,2.4,0,5.7.2,9.8.2,4.2.3,7.4.3,9.5,0,3.5-.9,6.1-2.6,7.8-1.7,1.7-4.4,2.5-7.9,2.5s-4.3-.5-6.5-1.3-3.3-1.9-3.3-3.1.2-1.5.7-2c.5-.5,1-.7,1.6-.7s2,.5,4.1,1.4c2.1.9,3.7,1.3,4.6,1.3,2.9,0,4.4-2.4,4.4-7.2s0-8.2-.2-10ZM114.8,65.6c0-3-.4-5.1-1.3-6.3-.9-1.2-2.3-1.8-4.1-1.8s-3.4.9-4.5,2.6c-1.1,1.7-1.7,3.9-1.7,6.5s.5,4.7,1.6,6.3c1.1,1.6,2.8,2.3,5,2.3s3.7-1,4.4-2.9c.5-1.6.7-3.8.7-6.8Z"/>
    <path class="st5" d="M125.4,53c.5-.5,1.1-.7,1.6-.7s1,.1,1.3.3c.3.2.5.4.6.6,0,.2.1.5.2.9-.2,3.2-.4,6.1-.4,8.6s.3,5.5.9,8.8c.6,3.3,1.3,4.9,2,4.9,1.1,0,2.5-.6,4.2-1.8,1.7-1.2,2.9-2.5,3.6-3.9-.5-5.9-.7-10.9-.7-15.2s.3-1.6.8-2.2,1.2-.9,2-.9c1.3,0,1.9.9,1.9,2.6,0,2.9.2,7.2.6,12.9.4,5.7.9,9.4,1.3,10.9,0,.3.1.7.1,1.1s-.3.8-.8,1.2c-.6.4-1.3.6-2.1.6s-1.5-.5-1.7-1.5c0-.8-.3-2-.6-3.7-2.9,3-5.7,4.5-8.6,4.5s-2.6-.5-3.6-1.5c-1.1-1-1.9-2.4-2.5-4.2-1.1-3.4-1.6-6.6-1.6-9.6s.2-6.7.5-11c.2-.7.5-1.3,1-1.7Z"/>
    <path class="st5" d="M153.1,42.3c.7,0,1.4.3,2.1,1,.7.7,1,1.4,1,2.2s-.4,1.5-1.1,2.3c-.7.8-1.5,1.2-2.2,1.2s-1.5-.3-2.1-1c-.6-.7-1-1.5-1-2.5,0-2,1.1-3,3.2-3.2h.1ZM155.7,74.4v4.3c0,.8-.2,1.4-.9,1.9-.6.5-1.3.8-2,.8-1,0-1.6-.5-1.6-1.5-.5-13-.8-20.3-.8-21.7s0-3.1.2-5.1c0-.7.6-1.1,1.4-1.1,2.2,0,3.4.9,3.7,2.6.1.9.2,1.6.2,2.1l-.2,3.9v13.7Z"/>
    <path class="st5" d="M171.6,52.6c2.2,0,4.2.6,6.2,1.9,2,1.3,2.9,2.8,2.9,4.7s-.8,3.7-2.4,5.4-3.7,2.8-6.4,3.2c-1.1.2-2.9.2-5.2.2.4,3.5,1.3,5.8,2.6,6.9.4.5,1,.7,1.7.7,2.5,0,4.7-.8,6.4-2.4,1.7-1.6,2.9-2.4,3.7-2.4s.8.3,1.5.9,1,1.2,1,1.7c0,1.1-1.3,2.6-3.9,4.6-1.1.9-2.5,1.7-4.1,2.4s-3.1,1-4.5,1c-3.6,0-6.2-2.3-7.9-6.9-1.1-2.8-1.6-5.9-1.6-9.3s.8-6.3,2.4-8.8,4.1-3.7,7.5-3.7ZM171.9,56.9c-1.6,0-2.9.9-4,2.6-.4.6-.8,2-1.2,4.2,5.7,0,8.6-1.4,8.6-4.2s-1.1-2.6-3.4-2.6Z"/>
    <path class="st5" d="M189.6,79.1l-.7-24.9c0-.8.3-1.4.8-1.9.5-.5,1.1-.7,1.6-.7,1.3,0,2.1.6,2.3,1.7.2,1.1.2,2.2.2,3.4,2.2-2.9,5-4.4,8.3-4.4,5.1,0,7.6,5.8,7.6,17.4v4.8c0,2.1-.1,3.7-.4,4.7-.3,1.2-1.2,1.8-2.6,1.8s-1.5-.7-1.5-2v-3.4c0-4.7,0-8-.4-9.7-.3-1.7-.6-3.1-.9-4.1-.7-2.2-1.8-3.3-3.4-3.3s-3.5.7-4.3,2.2c-.9,1.6-1.4,3.5-1.6,5.6-.3,3.8-.4,7.8-.4,12.1s-.3,1.5-.9,2c-.6.5-1.3.7-2.2.7s-1.5-.7-1.5-2Z"/>
    <path class="st5" d="M216.5,52.4h3.1c.7,0,1.1,0,1.2,0v-12.6c0-.7.4-1.3,1-1.8s1.3-.7,1.8-.7,1,.2,1.4.6c.3.4.5.9.5,1.7,0,.8,0,5,0,12.8l7.2-.2c1.2,0,1.8.7,1.8,2.1s-.3,1.9-1,2.4c-.6.5-1.3.8-2,.9-.7,0-1.4,0-2.1,0h-3.7c0,1.6.2,4.9.5,9.9.3,4.9.6,8.1.8,9.6.2,1.5.2,2.4.1,2.8-.1.4-.3.7-.7.9-.5.2-1.2.4-2.1.4s-1.4-.5-1.6-1.5c-.8-5.4-1.4-12.7-1.7-22.1-.4,0-1.8,0-4.2,0s-3.7-.7-3.7-2.1c0-2,1.1-3.1,3.4-3.1Z"/>
    <path class="st5" d="M244.9,52.6c2.2,0,4.2.6,6.2,1.9,2,1.3,2.9,2.8,2.9,4.7s-.8,3.7-2.4,5.4c-1.6,1.7-3.7,2.8-6.4,3.2-1.1.2-2.9.2-5.2.2.5,3.5,1.3,5.8,2.6,6.9.4.5,1,.7,1.7.7,2.5,0,4.7-.8,6.4-2.4,1.7-1.6,2.9-2.4,3.7-2.4s.8.3,1.5.9c.7.6,1,1.2,1,1.7,0,1.1-1.3,2.6-3.9,4.6-1.1.9-2.5,1.7-4.1,2.4-1.6.6-3.1,1-4.5,1-3.6,0-6.2-2.3-7.9-6.9-1.1-2.8-1.6-5.9-1.6-9.3s.8-6.3,2.4-8.8c1.6-2.5,4.1-3.7,7.5-3.7ZM245.2,56.9c-1.6,0-2.9.9-4,2.6-.4.6-.8,2-1.2,4.2,5.7,0,8.6-1.4,8.6-4.2s-1.1-2.6-3.4-2.6Z"/>
  </g>
</svg>