<?xml version="1.0" encoding="UTF-8"?>
<svg id="Capa_2" data-name="Capa 2" xmlns="http://www.w3.org/2000/svg" viewBox="0 0 101.56 101.56">
  <defs>
    <style>
      .cls-1 {
        fill: #224e90;
      }
    </style>
  </defs>
  <g id="Capa_1-2" data-name="Capa 1">
    <g>
      <path class="cls-1" d="M80.85,101.56H20.71c-11.42,0-20.71-9.29-20.71-20.71V20.71C0,9.29,9.29,0,20.71,0h60.14c11.42,0,20.71,9.29,20.71,20.71v60.14c0,11.42-9.29,20.71-20.71,20.71ZM20.71,5.67c-8.3,0-15.04,6.75-15.04,15.04v60.14c0,8.3,6.75,15.04,15.04,15.04h60.14c8.3,0,15.04-6.75,15.04-15.04V20.71c0-8.3-6.75-15.04-15.04-15.04H20.71Z"/>
      <path class="cls-1" d="M61.46,30.06h5.34v-11.62h-8.04c-11.39,0-16.8,6.77-16.8,16.43v9.15h-8.92v11.04h8.92v28.08h13.38v-28.08h8.92l2.53-11.04h-11.46v-7.54c0-3.09,1.69-6.42,6.12-6.42Z"/>
    </g>
  </g>
</svg>