<?xml version="1.0" encoding="UTF-8"?>
<svg id="Capa_2" data-name="Capa 2" xmlns="http://www.w3.org/2000/svg" viewBox="0 0 101.56 101.56">
  <defs>
    <style>
      .cls-1 {
        fill: #224e90;
      }
    </style>
  </defs>
  <g id="Capa_1-2" data-name="Capa 1">
    <g>
      <g>
        <path class="cls-1" d="M37.33,31.95c0,2.96-1.88,5.38-5.38,5.38-3.23,0-5.38-2.42-5.38-5.11,0-2.96,2.15-5.65,5.38-5.65s5.38,2.42,5.38,5.38Z"/>
        <rect class="cls-1" x="26.57" y="40.02" width="10.76" height="34.97"/>
        <path class="cls-1" d="M63.16,40.56c-5.65,0-8.88,3.23-10.22,5.38h-.27l-.54-4.57h-9.68c0,2.96.27,6.46.27,10.49v23.13h10.76v-19.1c0-1.08,0-1.88.27-2.69.81-1.88,2.15-4.3,5.11-4.3,3.77,0,5.38,3.23,5.38,7.53v18.56h10.76v-19.91c0-9.95-5.11-14.53-11.84-14.53Z"/>
      </g>
      <path class="cls-1" d="M80.85,101.56H20.71c-11.42,0-20.71-9.29-20.71-20.71V20.71C0,9.29,9.29,0,20.71,0h60.14c11.42,0,20.71,9.29,20.71,20.71v60.14c0,11.42-9.29,20.71-20.71,20.71ZM20.71,5.67c-8.3,0-15.04,6.75-15.04,15.04v60.14c0,8.3,6.75,15.04,15.04,15.04h60.14c8.3,0,15.04-6.75,15.04-15.04V20.71c0-8.3-6.75-15.04-15.04-15.04H20.71Z"/>
    </g>
  </g>
</svg>