<?xml version="1.0" encoding="UTF-8"?>
<svg id="Capa_2" data-name="Capa 2" xmlns="http://www.w3.org/2000/svg" viewBox="0 0 101.56 101.56">
  <defs>
    <style>
      .cls-1 {
        fill: #224e90;
      }
    </style>
  </defs>
  <g id="Capa_1-2" data-name="Capa 1">
    <g>
      <path class="cls-1" d="M80.85,101.56H20.71c-11.42,0-20.71-9.29-20.71-20.71V20.71C0,9.29,9.29,0,20.71,0h60.14c11.42,0,20.71,9.29,20.71,20.71v60.14c0,11.42-9.29,20.71-20.71,20.71ZM20.71,5.67c-8.3,0-15.04,6.75-15.04,15.04v60.14c0,8.3,6.75,15.04,15.04,15.04h60.14c8.3,0,15.04-6.75,15.04-15.04V20.71c0-8.3-6.75-15.04-15.04-15.04H20.71Z"/>
      <g>
        <path class="cls-1" d="M65.45,18.05h-29.33c-9.96,0-18.06,8.1-18.06,18.06v29.33c0,9.96,8.1,18.06,18.06,18.06h29.33c9.96,0,18.06-8.1,18.06-18.06v-29.33c0-9.96-8.1-18.06-18.06-18.06h0ZM77.7,65.45c0,6.76-5.5,12.26-12.26,12.26h-29.33c-6.76,0-12.26-5.5-12.26-12.26v-29.33c0-6.76,5.5-12.26,12.26-12.26h29.33c6.76,0,12.26,5.5,12.26,12.26v29.33Z"/>
        <path class="cls-1" d="M50.78,33.92c-9.3,0-16.87,7.57-16.87,16.86s7.57,16.87,16.87,16.87,16.87-7.57,16.87-16.87-7.57-16.86-16.87-16.86h0ZM50.78,61.84c-6.1,0-11.06-4.96-11.06-11.06s4.96-11.06,11.06-11.06,11.06,4.96,11.06,11.06-4.96,11.06-11.06,11.06h0Z"/>
        <path class="cls-1" d="M68.36,28.99c-1.12,0-2.22.45-3.01,1.25-.8.79-1.25,1.89-1.25,3.01s.46,2.22,1.25,3.01c.79.79,1.89,1.25,3.01,1.25s2.22-.46,3.01-1.25c.79-.79,1.25-1.89,1.25-3.01s-.45-2.22-1.25-3.01c-.79-.79-1.89-1.25-3.01-1.25h0Z"/>
      </g>
    </g>
  </g>
</svg>