<?xml version="1.0" encoding="UTF-8"?>
<svg id="Capa_2" data-name="Capa 2" xmlns="http://www.w3.org/2000/svg" viewBox="0 0 808.61 109.35">
  <defs>
    <style>
      .cls-1 {
        fill: #013e7c;
      }

      .cls-2 {
        fill: #224e90;
      }
    </style>
  </defs>
  <g id="Capa_1-2" data-name="Capa 1">
    <g>
      <path class="cls-2" d="M786.31,109.35H22.3c-12.3,0-22.3-10-22.3-22.3V22.3C0,10,10,0,22.3,0h764.01c12.3,0,22.3,10,22.3,22.3v64.75c0,12.3-10,22.3-22.3,22.3ZM22.3,6.1c-8.93,0-16.2,7.27-16.2,16.2v64.75c0,8.93,7.27,16.2,16.2,16.2h764.01c8.93,0,16.2-7.27,16.2-16.2V22.3c0-8.93-7.27-16.2-16.2-16.2H22.3Z"/>
      <g>
        <path class="cls-1" d="M104.06,41.82l-10.12,34.63h-11.47l-6.08-22.39-6.11,22.39h-11.47l-10.02-34.63h11.35l5.3,22.91,6.57-22.91h9.53l6.2,22.91,5.21-22.91h11.1Z"/>
        <path class="cls-1" d="M160.25,41.82l-10.12,34.63h-11.47l-6.08-22.39-6.11,22.39h-11.47l-10.02-34.63h11.35l5.3,22.91,6.57-22.91h9.53l6.2,22.91,5.21-22.91h11.1Z"/>
        <path class="cls-1" d="M216.44,41.82l-10.12,34.63h-11.47l-6.08-22.39-6.11,22.39h-11.47l-10.02-34.63h11.35l5.3,22.91,6.57-22.91h9.53l6.2,22.91,5.21-22.91h11.1Z"/>
        <path class="cls-1" d="M232.23,76.45h-10.92v-12.12h10.92v12.12Z"/>
        <path class="cls-1" d="M272.94,76.45h-10.79v-3.82c-1.87,1.56-3.59,2.75-5.15,3.56-1.56.81-3.42,1.22-5.58,1.22-3.43,0-6.11-1.08-8.03-3.25-1.92-2.17-2.88-5.43-2.88-9.79v-22.54h10.86v17.18c0,1.79.05,3.25.14,4.38.09,1.13.31,2.09.66,2.87.33.72.84,1.26,1.53,1.63s1.65.56,2.88.56c.76,0,1.66-.19,2.7-.56,1.04-.37,2-.87,2.88-1.51v-24.55h10.79v34.63Z"/>
        <path class="cls-1" d="M313.65,76.45h-10.86v-17.18c0-1.4-.06-2.79-.17-4.18-.11-1.39-.32-2.41-.63-3.07-.37-.78-.91-1.34-1.6-1.68-.7-.34-1.63-.51-2.81-.51-.88,0-1.78.16-2.68.49-.9.33-1.87.85-2.9,1.57v24.55h-10.79v-34.63h10.79v3.82c1.77-1.5,3.49-2.67,5.17-3.52,1.68-.84,3.53-1.26,5.57-1.26,3.54,0,6.24,1.12,8.11,3.35,1.87,2.23,2.81,5.46,2.81,9.7v22.54Z"/>
        <path class="cls-1" d="M332.74,36.89h-11.41v-8.42h11.41v8.42ZM332.43,76.45h-10.79v-34.63h10.79v34.63Z"/>
        <path class="cls-1" d="M374.65,58.66c0,5.51-1.4,9.97-4.19,13.37-2.8,3.4-6.26,5.1-10.39,5.1-1.73,0-3.23-.2-4.5-.59-1.28-.39-2.63-1-4.07-1.82l-.46,1.73h-10.33V28.47h10.79v16.96c1.58-1.36,3.2-2.46,4.84-3.3,1.64-.84,3.55-1.26,5.71-1.26,4.03,0,7.14,1.57,9.33,4.72,2.19,3.15,3.28,7.5,3.28,13.08ZM363.61,58.88c0-3.45-.52-5.92-1.57-7.4-1.05-1.48-2.66-2.22-4.84-2.22-.97,0-1.93.15-2.88.46-.96.31-1.9.77-2.82,1.39v17.39c.72.29,1.44.48,2.17.59s1.45.15,2.17.15c2.61,0,4.56-.86,5.84-2.59s1.93-4.32,1.93-7.77Z"/>
        <path class="cls-1" d="M399.7,72.78c-.74.62-1.4,1.17-1.99,1.67-.59.49-1.37.99-2.36,1.48-.97.47-1.91.83-2.82,1.08s-2.2.37-3.84.37c-3.06,0-5.61-1.03-7.63-3.08-2.03-2.06-3.04-4.65-3.04-7.77,0-2.57.51-4.65,1.54-6.23,1.03-1.58,2.51-2.84,4.44-3.76,1.95-.95,4.29-1.6,7-1.97s5.63-.66,8.76-.86v-.19c0-1.91-.7-3.23-2.11-3.96-1.41-.73-3.52-1.09-6.34-1.09-1.27,0-2.77.23-4.47.69s-3.37,1.05-5,1.77h-.93v-8.36c1.07-.31,2.8-.67,5.18-1.09,2.38-.42,4.79-.63,7.22-.63,5.96,0,10.31.99,13.03,2.98,2.72,1.98,4.09,5.01,4.09,9.08v23.56h-10.73v-3.67ZM399.7,67.42v-7.22c-1.83.19-3.31.34-4.44.48-1.13.13-2.24.4-3.33.79-.95.33-1.68.83-2.2,1.5-.52.67-.79,1.56-.79,2.67,0,1.62.44,2.74,1.31,3.35.87.61,2.16.91,3.87.91.95,0,1.91-.22,2.9-.65.99-.43,1.88-1.04,2.68-1.82Z"/>
        <path class="cls-1" d="M449.9,72.48c0,3.21-.46,5.93-1.39,8.17-.93,2.24-2.19,3.99-3.79,5.24-1.6,1.27-3.53,2.19-5.77,2.76-2.24.57-4.73.85-7.46.85-2.3,0-4.49-.15-6.55-.45-2.07-.3-3.86-.64-5.38-1.03v-8.67h1.26c.53.21,1.17.43,1.9.68s1.46.47,2.2.68c.88.23,1.75.41,2.59.56.84.14,1.71.22,2.59.22,1.83,0,3.36-.19,4.58-.57,1.22-.38,2.14-.92,2.76-1.62.62-.72,1.05-1.57,1.3-2.54.25-.98.37-2.2.37-3.69v-.65c-1.21,1.07-2.62,1.93-4.21,2.58-1.59.65-3.23.97-4.92.97-4.48,0-7.94-1.46-10.38-4.38-2.44-2.92-3.65-7.36-3.65-13.32,0-2.71.37-5.15,1.13-7.31.75-2.16,1.79-4,3.13-5.52,1.27-1.46,2.82-2.59,4.63-3.38,1.81-.79,3.69-1.19,5.64-1.19,1.77,0,3.35.23,4.75.68,1.4.45,2.67,1.06,3.82,1.82l.4-1.54h10.45v30.66ZM439.11,65.54v-15.7c-.54-.25-1.19-.45-1.97-.62-.78-.16-1.56-.25-2.34-.25-2.59,0-4.54.84-5.84,2.51-1.31,1.68-1.96,4.01-1.96,7.02,0,1.5.1,2.77.29,3.81.2,1.04.56,1.96,1.09,2.76.51.78,1.19,1.37,2.02,1.77.83.4,1.9.6,3.19.6.97,0,1.92-.16,2.85-.49.94-.33,1.83-.8,2.67-1.42Z"/>
        <path class="cls-1" d="M490.34,76.45h-10.79v-3.82c-1.87,1.56-3.59,2.75-5.15,3.56-1.56.81-3.42,1.22-5.58,1.22-3.43,0-6.11-1.08-8.03-3.25-1.92-2.17-2.88-5.43-2.88-9.79v-22.54h10.86v17.18c0,1.79.05,3.25.14,4.38.09,1.13.31,2.09.66,2.87.33.72.84,1.26,1.53,1.63s1.65.56,2.88.56c.76,0,1.66-.19,2.7-.56,1.04-.37,2-.87,2.88-1.51v-24.55h10.79v34.63Z"/>
        <path class="cls-1" d="M516.33,77.38c-6.54,0-11.55-1.56-15.03-4.69-3.49-3.12-5.23-7.58-5.23-13.35s1.62-10.17,4.87-13.54c3.25-3.37,7.79-5.06,13.63-5.06,5.3,0,9.29,1.43,11.97,4.29,2.67,2.86,4.01,6.95,4.01,12.27v3.89h-23.65c.1,1.6.44,2.95,1.02,4.02.58,1.08,1.34,1.94,2.28,2.58.93.64,2,1.09,3.24,1.37,1.23.28,2.58.42,4.04.42,1.25,0,2.49-.14,3.7-.42,1.21-.28,2.32-.64,3.33-1.09.88-.39,1.7-.81,2.45-1.26s1.36-.85,1.84-1.2h1.14v8.91c-.88.35-1.69.67-2.42.97-.73.3-1.73.6-3.01.91-1.17.31-2.38.55-3.62.72s-2.76.26-4.55.26ZM519.91,54.68c-.06-2.28-.59-4.02-1.59-5.21-1-1.19-2.52-1.79-4.58-1.79s-3.74.63-4.92,1.88c-1.18,1.25-1.84,2.96-1.96,5.12h13.05Z"/>
        <path class="cls-1" d="M547.3,76.45h-10.92v-12.12h10.92v12.12Z"/>
        <path class="cls-1" d="M573.57,77.38c-6.54,0-11.55-1.56-15.03-4.69-3.49-3.12-5.23-7.58-5.23-13.35s1.62-10.17,4.87-13.54c3.25-3.37,7.79-5.06,13.63-5.06,5.3,0,9.29,1.43,11.97,4.29,2.67,2.86,4.01,6.95,4.01,12.27v3.89h-23.65c.1,1.6.44,2.95,1.02,4.02.58,1.08,1.34,1.94,2.28,2.58.93.64,2,1.09,3.24,1.37,1.23.28,2.58.42,4.04.42,1.25,0,2.49-.14,3.7-.42,1.21-.28,2.32-.64,3.33-1.09.88-.39,1.7-.81,2.45-1.26s1.36-.85,1.84-1.2h1.14v8.91c-.88.35-1.69.67-2.42.97-.73.3-1.73.6-3.01.91-1.17.31-2.38.55-3.62.72s-2.76.26-4.55.26ZM577.15,54.68c-.06-2.28-.59-4.02-1.59-5.21-1-1.19-2.52-1.79-4.58-1.79s-3.74.63-4.92,1.88c-1.18,1.25-1.84,2.96-1.96,5.12h13.05Z"/>
        <path class="cls-1" d="M624.83,76.45h-10.79v-3.61c-.7.58-1.5,1.19-2.39,1.85-.89.66-1.68,1.15-2.36,1.48-.86.41-1.72.72-2.56.93-.84.21-1.85.31-3.02.31-3.95,0-7.07-1.64-9.38-4.9s-3.45-7.64-3.45-13.11c0-3.02.39-5.64,1.17-7.86s1.86-4.15,3.24-5.8c1.25-1.5,2.78-2.69,4.56-3.56,1.79-.87,3.68-1.31,5.67-1.31,1.81,0,3.3.19,4.46.57,1.16.38,2.51.97,4.06,1.77v-14.74h10.79v47.99ZM614.04,66.89v-16.99c-.54-.27-1.23-.49-2.1-.66s-1.6-.26-2.22-.26c-2.59,0-4.54.9-5.84,2.71-1.31,1.81-1.96,4.34-1.96,7.59,0,3.41.52,5.88,1.56,7.4,1.04,1.52,2.72,2.28,5.04,2.28.95,0,1.9-.19,2.87-.56s1.85-.87,2.65-1.51Z"/>
        <path class="cls-1" d="M665.26,76.45h-10.79v-3.82c-1.87,1.56-3.59,2.75-5.15,3.56-1.56.81-3.42,1.22-5.58,1.22-3.43,0-6.11-1.08-8.03-3.25-1.92-2.17-2.88-5.43-2.88-9.79v-22.54h10.86v17.18c0,1.79.05,3.25.14,4.38.09,1.13.31,2.09.66,2.87.33.72.84,1.26,1.53,1.63s1.65.56,2.88.56c.76,0,1.66-.19,2.7-.56,1.04-.37,2-.87,2.88-1.51v-24.55h10.79v34.63Z"/>
        <path class="cls-1" d="M684.72,76.45h-10.92v-12.12h10.92v12.12Z"/>
        <path class="cls-1" d="M710.26,77.38c-2.86,0-5.47-.36-7.85-1.08-2.37-.72-4.44-1.83-6.18-3.33-1.73-1.5-3.07-3.39-4.04-5.66-.97-2.27-1.45-4.95-1.45-8.03,0-3.31.52-6.13,1.57-8.45,1.05-2.32,2.47-4.24,4.26-5.74,1.73-1.44,3.76-2.5,6.09-3.19,2.33-.69,4.76-1.03,7.29-1.03,1.91,0,3.83.22,5.74.66,1.91.44,3.83,1.15,5.77,2.11v9.25h-1.39c-.43-.41-.96-.86-1.59-1.36-.63-.49-1.31-.95-2.05-1.36-.78-.43-1.67-.8-2.65-1.1-.99-.3-2.09-.45-3.3-.45-2.75,0-4.89.96-6.4,2.88s-2.27,4.51-2.27,7.76c0,3.48.81,6.07,2.42,7.77,1.61,1.71,3.76,2.56,6.43,2.56,1.36,0,2.55-.15,3.58-.46,1.03-.31,1.91-.68,2.65-1.11.72-.43,1.34-.88,1.85-1.34.51-.46.96-.88,1.33-1.25h1.39v9.25c-.62.27-1.33.58-2.14.93-.81.35-1.64.64-2.48.86-1.05.29-2.03.51-2.95.66s-2.12.23-3.62.23Z"/>
        <path class="cls-1" d="M759.82,59.15c0,5.7-1.56,10.18-4.67,13.46-3.12,3.28-7.52,4.92-13.22,4.92s-10.05-1.64-13.18-4.92-4.7-7.77-4.7-13.46,1.57-10.26,4.7-13.52c3.14-3.26,7.53-4.89,13.18-4.89s10.07,1.64,13.2,4.92c3.12,3.28,4.69,7.78,4.69,13.49ZM748.75,59.21c0-2.06-.17-3.77-.51-5.13-.34-1.37-.81-2.46-1.4-3.28-.64-.86-1.36-1.46-2.16-1.8-.8-.34-1.72-.51-2.75-.51-.97,0-1.84.15-2.62.45-.78.3-1.5.87-2.16,1.71-.62.8-1.11,1.9-1.48,3.3-.37,1.4-.56,3.16-.56,5.27s.17,3.83.52,5.13c.35,1.31.8,2.35,1.36,3.13.58.8,1.3,1.39,2.16,1.76.86.37,1.82.56,2.87.56.86,0,1.74-.19,2.64-.56s1.61-.93,2.14-1.67c.64-.88,1.12-1.95,1.45-3.19s.49-2.97.49-5.17Z"/>
      </g>
    </g>
  </g>
</svg>